<mxfile host="65bd71144e">
    <diagram id="SHmUVg6gSrjERo_Ki9v-" name="Page-1">
        <mxGraphModel dx="491" dy="443" grid="1" gridSize="10" guides="1" tooltips="1" connect="1" arrows="1" fold="1" page="1" pageScale="1" pageWidth="850" pageHeight="1100" math="0" shadow="0">
            <root>
                <mxCell id="0"/>
                <mxCell id="1" parent="0"/>
                <mxCell id="2" value="Sequence Controller&lt;br&gt;" style="whiteSpace=wrap;html=1;aspect=fixed;" vertex="1" parent="1">
                    <mxGeometry x="345" y="220" width="80" height="80" as="geometry"/>
                </mxCell>
                <mxCell id="3" value="TreeData" style="whiteSpace=wrap;html=1;aspect=fixed;" vertex="1" parent="1">
                    <mxGeometry x="300" y="330" width="160" height="160" as="geometry"/>
                </mxCell>
                <mxCell id="18" style="edgeStyle=none;html=1;" edge="1" parent="1" source="4">
                    <mxGeometry relative="1" as="geometry">
                        <mxPoint x="500" y="565" as="targetPoint"/>
                    </mxGeometry>
                </mxCell>
                <mxCell id="4" value="" style="shape=table;html=1;whiteSpace=wrap;startSize=0;container=1;collapsible=0;childLayout=tableLayout;" vertex="1" parent="1">
                    <mxGeometry x="255" y="510" width="180" height="110" as="geometry"/>
                </mxCell>
                <mxCell id="5" value="" style="shape=tableRow;horizontal=0;startSize=0;swimlaneHead=0;swimlaneBody=0;top=0;left=0;bottom=0;right=0;collapsible=0;dropTarget=0;fillColor=none;points=[[0,0.5],[1,0.5]];portConstraint=eastwest;" vertex="1" parent="4">
                    <mxGeometry width="180" height="40" as="geometry"/>
                </mxCell>
                <mxCell id="6" value="" style="shape=partialRectangle;html=1;whiteSpace=wrap;connectable=0;fillColor=none;top=0;left=0;bottom=0;right=0;overflow=hidden;" vertex="1" parent="5">
                    <mxGeometry width="60" height="40" as="geometry">
                        <mxRectangle width="60" height="40" as="alternateBounds"/>
                    </mxGeometry>
                </mxCell>
                <mxCell id="7" value="" style="shape=partialRectangle;html=1;whiteSpace=wrap;connectable=0;fillColor=none;top=0;left=0;bottom=0;right=0;overflow=hidden;" vertex="1" parent="5">
                    <mxGeometry x="60" width="60" height="40" as="geometry">
                        <mxRectangle width="60" height="40" as="alternateBounds"/>
                    </mxGeometry>
                </mxCell>
                <mxCell id="8" value="" style="shape=partialRectangle;html=1;whiteSpace=wrap;connectable=0;fillColor=none;top=0;left=0;bottom=0;right=0;overflow=hidden;" vertex="1" parent="5">
                    <mxGeometry x="120" width="60" height="40" as="geometry">
                        <mxRectangle width="60" height="40" as="alternateBounds"/>
                    </mxGeometry>
                </mxCell>
                <mxCell id="9" value="" style="shape=tableRow;horizontal=0;startSize=0;swimlaneHead=0;swimlaneBody=0;top=0;left=0;bottom=0;right=0;collapsible=0;dropTarget=0;fillColor=none;points=[[0,0.5],[1,0.5]];portConstraint=eastwest;" vertex="1" parent="4">
                    <mxGeometry y="40" width="180" height="30" as="geometry"/>
                </mxCell>
                <mxCell id="10" value="" style="shape=partialRectangle;html=1;whiteSpace=wrap;connectable=0;fillColor=none;top=0;left=0;bottom=0;right=0;overflow=hidden;" vertex="1" parent="9">
                    <mxGeometry width="60" height="30" as="geometry">
                        <mxRectangle width="60" height="30" as="alternateBounds"/>
                    </mxGeometry>
                </mxCell>
                <mxCell id="11" value="" style="shape=partialRectangle;html=1;whiteSpace=wrap;connectable=0;fillColor=none;top=0;left=0;bottom=0;right=0;overflow=hidden;" vertex="1" parent="9">
                    <mxGeometry x="60" width="60" height="30" as="geometry">
                        <mxRectangle width="60" height="30" as="alternateBounds"/>
                    </mxGeometry>
                </mxCell>
                <mxCell id="12" value="" style="shape=partialRectangle;html=1;whiteSpace=wrap;connectable=0;fillColor=none;top=0;left=0;bottom=0;right=0;overflow=hidden;" vertex="1" parent="9">
                    <mxGeometry x="120" width="60" height="30" as="geometry">
                        <mxRectangle width="60" height="30" as="alternateBounds"/>
                    </mxGeometry>
                </mxCell>
                <mxCell id="13" value="" style="shape=tableRow;horizontal=0;startSize=0;swimlaneHead=0;swimlaneBody=0;top=0;left=0;bottom=0;right=0;collapsible=0;dropTarget=0;fillColor=none;points=[[0,0.5],[1,0.5]];portConstraint=eastwest;" vertex="1" parent="4">
                    <mxGeometry y="70" width="180" height="40" as="geometry"/>
                </mxCell>
                <mxCell id="14" value="" style="shape=partialRectangle;html=1;whiteSpace=wrap;connectable=0;fillColor=none;top=0;left=0;bottom=0;right=0;overflow=hidden;" vertex="1" parent="13">
                    <mxGeometry width="60" height="40" as="geometry">
                        <mxRectangle width="60" height="40" as="alternateBounds"/>
                    </mxGeometry>
                </mxCell>
                <mxCell id="15" value="" style="shape=partialRectangle;html=1;whiteSpace=wrap;connectable=0;fillColor=none;top=0;left=0;bottom=0;right=0;overflow=hidden;" vertex="1" parent="13">
                    <mxGeometry x="60" width="60" height="40" as="geometry">
                        <mxRectangle width="60" height="40" as="alternateBounds"/>
                    </mxGeometry>
                </mxCell>
                <mxCell id="16" value="" style="shape=partialRectangle;html=1;whiteSpace=wrap;connectable=0;fillColor=none;top=0;left=0;bottom=0;right=0;overflow=hidden;pointerEvents=1;" vertex="1" parent="13">
                    <mxGeometry x="120" width="60" height="40" as="geometry">
                        <mxRectangle width="60" height="40" as="alternateBounds"/>
                    </mxGeometry>
                </mxCell>
                <mxCell id="20" value="" style="shape=image;verticalLabelPosition=bottom;labelBackgroundColor=default;verticalAlign=top;aspect=fixed;imageAspect=0;image=data:image/png,iVBORw0KGgoAAAANSUhEUgAAA0QAAAGdCAYAAAAyt7PgAAAAAXNSR0IArs4c6QAAAARnQU1BAACxjwv8YQUAAAAJcEhZcwAADsMAAA7DAcdvqGQAAMxASURBVHhe7P0PeBXlvTf8fo0QISRxQVZ8MUKJCRIqJbB9FgQ4YEwD7m7Kn6J9X8WUahHPpqBFxV7neVDkoVje815b1FRls49IddMYfU4r8qd072qMKVwgmN2DoC1BE0PR6EtWYBHCnwaM5/7dc8+sWStr8o8kJOT7ua4Fa+41657JzKyZ+c3vnnuuSr/xiW8K3liCISW34vn/DyJMf+FPmBpcj//5P183Jcb/czPWzRthBmwN+PPTM1GU6f3Z/mk7sdhfhuUP/l+mPHIaN/1P9XlOovlEHMUf/mkB3pG3Ms38IDbc9Qg+0Z/Z7obM/y3JZlBU/j5iGkRERETUl+XinlX5SDdDwDHsXP0SDsjbjB9iyYJs+HQ5EDr4CtZvqQKmPoAV+cNVyTGUH/RhJH6ny8ff/wvMHKaKGw6iPJQNf8WTeG03MHTez7EwO0nXAZxG+eZ/wR+h6p4HvLnut/hKlcp3bzbjh+tXVF2bXOPo+jXXfMYSNe/2dI/nuaYj49jz4Iyvxiv5DCOzarH+5TI1UtTy+bwEa18G7nkyH3jXPb8+6+9Si8f6e+EMO9x/l66nLPJvMn8r5PsZn5m/OwO3L78PgZA1vtDfQXhYRCxjU3f0MqguMfPbDh0PiLI/ih10tPCZDngiAiIrmNHTrnwW//OxLHwiQVWJ+ihfhv3Y3UpApOv8doVT3nwaREREREQdJyfid5iAiK48KiAa+Y1X4OMZEOlg5b+hbkvzIKqlz6KDFan/n1L/ywpmdNYJTkZIf5bpyhBFB0iGHg92Ruj/hYf+8H2kM0NERERERMY9C+5DekaGGWqftaufdAIiX/Z9ppR6spMnTuBfn3/ODLVOB0R2EGMloEzTt5IWAiKhAxhX07h6E9jIe4/PEN0kLiJwiWz6dnrff6Eux4+/ugIgK0gyA/Z3o+d9Xx1u8Xtkr4iIiIiIiFysgIiIiIiIiKgPijP/ExERERER9TkMiIiIiIiIqM9iQERERERERH0WAyIiIiIiIuqzGBAREREREVGf1YGA6HG8vm8f3t/3BlaYEiFPk12x/IcYaoYjydNnH8B4M9QRcSs3ILVwvhnqTJMxsGgDBuaZwQjzMWi712e9V9ctS6vua1dONkOR+j/3756ftdvUB7BkXseeJ9B+8vTmX7R9evKE5vtzzYBbO+vpNPZ2fJUZ7kxS91Pob4a6jvxO2zadrty+qWWXZz/du3F77YjY5yHNFeCFd2S8d/BClyzits3HoEQ/fnjvBvz3/7MC/+P/+iTiJWXymYxDRJdPuwOighfzkFL+K0zKuQtrTZk48PKTWLvut/jKDEfIuAUjcTL2Z210tX8QGoPVZqgzpSMuOYiLpWbQLS8N/eDxWS/WbFkuegqp2zc7r0GLTHkHSN0Xv9xrhtwmo5//Ko/P2m981nCEarvradFleG31k21+OvXQVB9CJ46ZIbf21dNp7O34PbuHfTm5DK/v1KLlHU8VS931J/G1GewyeVMQr/YhbZlO1+0repCMH2LJqp/jdju27tYLBN6il70+2Xf2LZcS0LSwn24mavvuloC94/rE9trJvM5DmivCg9Nz8Hw54B9pijrVL3F3Tg62VacgrYWA65/ufAo33ZyPq+Ka72mlTD6TcYjo8mn3c4hWvPEO0t6ajgeLZUgyP/choJ+1egw7V7+EA/JWk6vh+eowZnxegrUvl1nvV76B92eloPw5u57WyAHuXmDjYpzTB0QzfDiIxInWA2DPbl2AMxvVm7zluPbR8erkSak/gLqCdWiS9zHKry7cDF/EOcQZNDxjT0ORQGHsx6hd1qaZbEaeavzd2v1AvrUcQgdfcU6GJaM2c5h+q8iyK8F199+i3mcjMOwYyg/6EMgGyjf/C/6oviJ1Lcy2Hj/rrufSl6V10pKEV3FqjQpW3H9zO5Zlk3xvruthvErj/vVWndp8DNo2Bo1znsAFU9Je7mUAnHaWjc7I5A+3il3b2fj7V6tlbLIi7u3PPX7DQWySQF7Ksk6i3KeWv2zPUr4FuGNBNnwynvv7ervPx/F9wExdj5kXqJNUe3ybfK80NVweUY8iJ7b2Z/a8yG9neSr+UnUjZuq/N/K3VfDiO3goUIdtk+7G2m/a8PO11+nDap3q0SWrY9bFN5Hbg2wLKRMH6a+511/zcmDgb5Yg8VpdZBxFaLb3+o1b+a8Y+OWfgLkzkaCGw/XL/FhlkXW4y5Wqnea3KPOspq0f4hz1m42xfbeP17KXdX6nmoeQ+l1a2051yZN4bXcLv033unWvQ4/tNWL7draFqH2FPb4EQDmq5qrf6enJODdXWPPTvn2Lex/u+k2JTti39Ff72PhD1r45Yj/TmfvpaFLHIvXXmDplHhKCalvbPUWXNwbHI1HXF97WZBx7Gs6xRLj3a6759PqduOsJb6+R23FE/Ze8vSoR25l7HbqPwa7tL2J8s81+eAuW5NVivd4Wzba+pYX9q2x/qUfwaUa+te2492se273n70RnWeboAGfG0iJT1rLI85DWtXf89pEs1BzUTPcOziQLFBkM1aLy/Y8xdNJtsLYitWtuasL/+39kmSEi6m5xs+begVivEek3mlHcHkd2eh1qnJ1KFf647kmsXf0Kyht8uM45aFknjFAnDGtXP4lNB0/HuGLurqc1e3GuIPqAMQiJo0+ibvYC1G49ioSx883BdDDOSpl6hdSBb6BkOzzKLyyzvisHNCmvnR01jY1PdDgYEkOHJCE9fyKCm9Vy2HxQLZZbdJNCOTDMhDqAqGUj5aEGyZ4Nh39YNkaeKFHLcjgCQ/Zj5+emHjX+HfidM75dT9ilLcur/eqgvtsc0MeOsK5WtnNZ6mU1eyfOykmD+SwcDIlinLmEYEgOwAszPsMmWQbqBK8aIRy3D9ZZR6xlI+XDRllNM1X5TLxrytXLPljrgzvUQdqUu7Oaavn790m52p5xozp9/C3WyziyjnyprmWu1lXicMzMOannZ5NaJSPHqY2/SsaX34KcBJj6Zbq6PEY9+sRhMPaYcXeGxuK7U6U8Fb7EbMxU24Au/3w4bpZyt9NBdTrXRvZ2bMdOktWp+thaF5J5MVfeJWBJ8ZfpdSfr8uKE7+sr6/rkT8rnmPKJUq62ox8tQN3+M/oEz/pOy+v36pRBSJibi6Zn1LjPqFOk0VMQp08WTZmqo26/Hwm6WaWcKM4ETN0yHesqun0CaZcD8VPdzTBj7SvaocVln4RAhrXO15YcQ3pWrnWSZ8aV7S+UnW9tf3rd3ohP5bevP3MFQ7G2VzX+Hc72rV72dqm3Y7OvkJfZjnWGtOozYIicqGbgOt9pBGvau2+xT3ytup3tOMKl7FskK6z2r/rkfzKuGW2yx529n46WORjxamHoAEttX/EZatsx+zckq2BLBUe6/qoRiFf12wGTrlttl/3UfOhTVx0MqZN3Mz+1rmBIAjt7fGs7tsb3QQVB9vjm2NG/MLwdyyscDIlL3F5lHc5zb2fuYGgU/mK2m/B2rMpd26VsBzrTnjYYcI7Rsn9ref8qWXCf2tat/WXkdhxru2/9GKa2tK/aFgw1Pw9pTQHSUtozfnulw4+W98fNM0PX4NqhI9W/YbGyR0TUfeL+drQK2ePHR7yu9V2Lo9XqYOuy4g1pJ5uNgzFT1K4dqJiaj0CoRF+tFEOHAJ9+aH+orLmrDanulkjziTNo2GiuKpoTvripNwH7f++clH0dPIN+10/2LBdx1/s7rRlXLKGDv7MOUOqA4wvVqpOTXHw3O4Sd9gm6HIiq/oyv5EQMx7BnC9SyVCfULx9TJzmyTDOQnZGkDj73YcWqX2CFHGy2uE7iL3lZygmDCi4ftZqX6CupKpDpyLLUJ9rOiUhnUgf9HB/K7b9bltXnR/SBVk4MMSzfWjarJAg3J541JxFS5dHNiMZnqXo2m3Fc5AAvVzmtbVYCfdeVcmfdual15A6mHOq34NU8NKqeoeNuBA6WOPPy1YkG+FLt+ZVtQLaR8MmurWjpdEyavhRFbckOxSDrMD5jJlK3qXWuT0AlkFEnrFlXoeEt+6yhGk31fnVyKCeysMr15OxyPZIOppsqrfdt0bj/Vevkzz5pXTQGCVVlzglh05dBxPvT1cnl95EY3OmcPDpBuw7gwttryuhPcDoi8O4Ekp2xf58O2cedDm+Du19Swckx9dsEykvtcY8haC4MyboNlbi2IcNze62qRUgFYguj7z2LuR3LNnEMf9mivqNPRGWb+wwHq9q5b8EtGJmogrwFMi+/0Bcc3nSu2iuXum/R62oEfLrZ2hLElZpMURfvp2VcyPatpyvBiAk4ZJurP+BsLxJondko+7+jOGtvQ6U1uJg8GFert/3H+tHwTHSQbwV28ROXWPU/epMK+MxxqPIkGtV0o++TlL8jYW5X3f9UheMhWYdR9+hOHaWOksMxU29nv9BBspXNnAiffUyytyMpl2a+dhNk2V50IN3C9irs/aVr/NjbfSvHMNPs7O41ZrAFLZ+HeCnCg+onMafL7iP6JbZXZOGhVu9nspw5vB7vbvsf2H/qGvQzZUR0+cUdPHAA8rKdCoVQ9OqvzVDY2rukHW4KsleaAjfXCaqIvIciFzcPcwVLnUHft/AJ/h51Vc2d6RD2/Sxe5db79p3QtZ11sNljTjCcZeI6eAjnXhg5WZZl6CxLc2Kt779SJ2j6apu8mp9kXRK9LK2sTkjV614u7V2WcsKBLmkLHxlw60BCb1+ybbmyMeplB+F2VuZN3KkOwva9FrJOYm+Lks2rrog+CbbIuov4LHp7V9+NOJloFjxZouuJvlAwdEhi+GqtEyhF/u2dQdaZzuo8cwCNzv0/6YiD+zdl37PhVS7vJQNgv2+NjPs358RTTlol4yP/nz0UvnTrLg/fVyEnrSaLpU+a7UyBepmr9p3GDiL0gCsY1b9bCTr0B4YdiJhB17qSdesOYi0tbK/m/rK1FaP0SeM9dlYq5nZs9g3qO3/5XAVgU8021859ywUdkL/izIvnPaAdJQGINBubvR4N9Wec/WxX76ed7TsqI6O3qcN7IrcXd7ZU6P2h/CY8tm19L1s4Cx6RrSpdh1Oq7DTuVcFSOABqWrNYjfeqCvJVAHUp9+t50Pfvrj6CmyXYMAG1rHtp0umsWxMkR+yr5MKluXjj3l5l/2pfvPPaXmV850KAbF9mnxdzu+/EY1iL5yFepOnndw6q4L5rmsxJE+b78Os2XzwYNHoJvjvtNgzo8hsviag99L55V9m7OhASO7Zu0f+3i5xENGsSJ6ymc859RJrVK8vr7dmhRYtoEuE2CHGZ5q00X/AfwDl9MPQql4OeLm0z2fm9/86LKDDD3uyTFkvEgcjQzVtMW3/nZNlelvaJtb5yPLhZ8wJL5y7LC4dM00OtvcvSOuFoj4IX3m7jsnSZ+oDrPqLwFXkvX235F9M8yBZrfNeJbwzRB/lwQKZIkybfQbxrn9jKyYF5G635yUIi/Gnmra7nkK5HB8/uAMt1kov5L+Jtc6WzY33GyTZvTk5L96ARN+Ea+8q1uTIupJlPvw/M1frocucqvgRH+k0bSGAV7hTBOtl9X78PZxiXI2liMHy1XrOaztn3XzgZpPZwLbPWOEGEMnTenQiE9lsnb66Tvgiu3+b4+/PhcwLZpPC6dbS+vUrmSZoYR4vYju19g3p7oCKEQH52s/1vW/YtH9eG4NNN7mK59H1LOKjdi78fdjdt7Mr9tIxrN9OL5A6wIqgVZQUpaltbNF4FQXaQHc6EOlwZJC8SAMnFpUjSNG4nzpqhlnVk2auAWppImqGvTpx2ZZtjycU9cl+Q3o5cF4qk6abav1oXNL2218gLS3p/5Wx/Mbb7Fo9hJuvzxuNmqPMVDE1B9Ue/NEO2Tjh2GiPUtlmxu+XmfnJ/kNvF/7sS1wxNNUOW6HGIqHvp44AEQ795dZMKjEqbNZVzkx9+8FMzEMVOh0vTjq8+VHXo4fvg31eC6ogTujSkmLcdFXn1OOzCWwfQb67VlCY176RzA6xXuX2gtpvfXErvas1IkwXnBMp1wl31Z3yKbCxUy0ruPdj5uWn7b06WnZNhJ8gsw7sHfU7ThxWrXE0jOntZbvwYZzPG6PtG2r8s1YnA7k8AuymJdCPbab08y5Vw0/wj5yR2yj1p+qS1Cn/cp04ITZMf5wq6tGN3lpc0FzEntc3Gt5dl+Mp+bHazIqt+CW6d5h9yP5L7yvruI6i2m5g064Y+MaKeA6WH4MuXYfWS+5F0PdK8xBU4RZ+Ij/SrubkU7gyP+0S1GOc+SDHNm8JNJ3X5fn+MclGMxiq7SVQr3XpL07g6+yJGOChrWlOGi07zI7v5nntbkqZWcm+aCaY2/h4Nfrs5lHp1anfF8jtVS8isE33Pmn1lPeKkzxb525xyInyj+IHSg+F162R2PLZXOTk1ddjT1QG2x3YcEZBLkzr1n/49tHffsrsE5T67OZR6uZvrdcK+xR2A6PVp7rXp0v20Z2+ErgsBbir4ORscjxS9PYWb9ekApjToTDPcU13k78Epl/ufnLLN8KltQzJHcr+RXaab7znBVufQj7uw1580RTNZm6+27EfI3kepl93k8kDFMbN9TwTU9mFt09Lszuxf5wF7nIDca/8a2Wus+2Jf7O2+hWOYvr/HvG2jiPMQ52KHBDj2/5GBTkvnLa2S7JI0hdPTsf93X1xp2/1Jnx6OTDVebPw7vih/Fv9VWWtKmo9DRN2rHb3MyY6mvW13rzx2erytveGQN8kQ3XfVK71sWdo3ondy00XqOnIScz/witx3ZYpis29Eb36PGVH36Z5jrbtnwt6jvcvGa/xOWsZt3LfIM4akW+2Ro/OadZ4gmSEJhv7wuydwpiFoSomou7Wr221Jbc9JB6p3tO0GyCuL7EDnIL16GybdFZ1+p/bpzctSnTQvT8W7nX2/BXUJa59VjW1tOfGRjIzT9TBR97O61Ec7ujrvqN57Yaet5yFe43XOMpautn+GQNLpblhXRNQd2v0cIiIiIiIioitFZO6WiIiIiIioD2FAREREREREfRYDIiIiIiIi6rO6LyDKL8S0Zws9ntGyEJnPbse01aswwJQgaxXGSZm8li00hVH0OMVIyzLDfZDcIPr2i60/yUduMO2MZy4QEREREV1JekiGaBMqH5mNXatW47wpQcVqfKjKDjV/3FDPo59V0LYHP3aq+S/ivqwKvOJ0Wy29t+1T82K93AHQ2rt+hWDuZZhHIiIiIqIerIt6mZOMzzxYD6xuQOWG+agZVohps4Ca6gykyYPm68vxgQRAkuVZHIB+4H31Fuwq3CTvHL5l2zEWkeW6zHlYvakfUs8Q1JZfh8xAoiqvwqFHliGEXKStfgyZegJm3AqrbOCRciQGrGnX7JiNyhIZR5FnCzychYo2dqe54o03gI+AvKHbnGfqSEYmO1iOFFW/PEjzdPmv9Gde5VZXoPYjN61ugo9Kmb/U6Zo68hlI0u3nT4CXPeZR/w1+lLq7G5bA7TsH2W04EREREZHRrgxR9vjxMV8j0m80YwgJNlQwJMGNZH0ekQDEfIQMJAafVmVbUJMcwA35qqidmaABBcUqGJJgR9W9oRz1ptySgUz/26r+p1FZn4ERBbkqeHoMqUdkmrPxQTmQeU+4WV5aYAiO6vIGpN3qaq7XLo8jGwexds1B1GVNUWFKWHoW8EpODiY9pybs+ixWedHS6ZgkZer1fHkK8l4sUGWlqE7Pxgr9rQJMzqpDqZ0Nmj8FKmTD3pYCttNBHDVvtTXbUJ6SxywREREREZHRroBo7Lh/wKy5dzR7hUInzRhK1m1ITW5A5X9EZnosVThadGkPPRzgTwSqP0TIDEeyp1uGmlWz8aGKHRKGAMmBx/S9SBMkc5Q8xAl86svfjF1P8VLMyGnjw9ZWZgMfScbllzhYl4XJrmCjusw8vVrqcz3JOma5ZHRMU7dwpkjVWZ2CNKlTAqA6FXhZHwAj/SqY3NP86di6+Z6qRzJcL0c/PbsINXVJ8I80g0REREREfVy7AqIdW7eYd2FFr/4ap0Kxw5PLLxMDk63mcFa2Sl7SjK7zrPhOOtJnWYHMnPQkZE1tvYOD5grwwv0B1O2wM0SnTTmw9qM6XWfBVD8q3ops6pbkd9oNhq25y2Safg3cH+ueodMIfmreEhERERH1ce0KiCTw2bH1TTMEHK3+TL8iVBxDAxKR+T2PnuEu0flgAzBkuM7yDAiMtu498rQJddVof3M4na1pSwcEjyM7pRzPm6Zu0U3j2scOVKRpnJ0hUnRTvDmY7Q9GNo/7NIjTKWntnFYB0lLqUNOWzBcRERERUR/Q7l7mDh44oF9CskPNbUKl3NuTPs/qMlu9MuVeIS+6O27TSYL5jowv9wrFKj9f9La+/2iCGp7gP44aXYm3UKF1v5KML3V4duHdESuzkeJutla8BxWIbDbXNkXYWwEEHpZM009UUOm+oUqa4qUjJRjVPC7WtFzN7t7f9zP4y6Ka/UU3uyMiIiIi6uM61MvctT4ffL7BzbND1AWkN7k5qJnu6i3OJvcL5QbxvOv+JG+t9EpHRERERNQHdVG329QZpIvuOelA9Y4c3L3GFEaJ7Irbm+7u+yPveoiIiIiI+iIGRERERERE1Ge1+x4iIiIiIiKiKwUDIiIiIiIi6rMYEBERERERUZ/FgIiIiIiIiPosBkRERERERNRnXfZe5nzLzMNXlfryp/FhUZk1QERERERE1MW6LCDKHj/evIt0KnTKeaDrgIJiTAgcx6FHliGUtQrjFgfQsGM2KkvkU3mQ6M+QVfGrVp+xQ0RERERE1BFd1mRu7Lh/wKy5dzR7hUInzRjAkFGJqC9/EyH1fkBgNJLV/4lDc/VnREREREREXa3LAqIdW7eYd2FFr/4ap0IS/rhlIm31dkzwv41D1UCyP9OUF+HB6TnMDhERERERUZfpsoBIAp8dW980Q9DN5Oymcm7JgXkY+KfZ2FVYiYQhQH2w0nxCRERERETUtbq0l7mDBw7ol5DsULQTRxqkJwV8IfcMZd2G1GSg4Su7UwW5h2gf3n6xwAwTERERERF1ri7vdntX2bsxgyFxvmgDKhHAhGe3Y9riAFD+tOlQgYiIiIiIqOtd9m63iYiIiIiILpcuzxARERERERH1VAyIiIiIiIioz2JAREREREREfRYDIiIiIiIi6rMYEBERERERUZ/VKwOiAQXFmLZ6FQaY4a6mp/fsdmTmm4KWZK3CuGeLkZZlhh25SFu9XdVTCJ8p6XqTMbBoMwYtAvoXbkZq4XxTHpuMI+PGtOgppG6P+tyUpW7fgIF5piyajNPKdK988zFo+1Pof5UZ7GJxKzeYddKWCco2Emv9qfLfqHVbtPySdhKyTV27crI1T5dYFxEREVFX4PlJG5wvmo9dj8y+xGcklaFm1WxVzzKETEl3+jp4Bo3BajOkOMFMKwGNbeMTqJ29AGc2mmGhy9ajod4MU4/QtGaxWi+Lca70UnrU34tzP1qA2oJ1aDIll6LpyyAQrOmUuoiIiIg6Uy96DtFCZD47D2lmCPXl+GDVapzXmZfHkJkshQ2o3DAfNRXyPnL8mh3hgEYyPhMCidZA9RbsKtwE37LtGBEsR0MgoL9TX/40Piwq0+Vj02XE6Lpn4Fz5cWQGMqRA11/3HXvcMGu6rnlx5tsSa16QX4hpt55A5YkAMqW+iO8U4IV3foasil9hxtIiXeJNrv4vQVzpApy7fgOS8CpOrdkL5C3HtY/ehMZn5KTZjKrI1fz44AH0mzge8Wr47FYTAEnwNHeEenMGDVHfsaZxrwqO3OXWdBP1OlGqdqJ2WbEZiEUyKDORoN+7p+EuP4rQnCdwQbZWZ36EGR/qb1oEnDYn8PpvOfRjNf/qC+7x7XmRZfADoNE/3prP+gOo+5H6rtSvl4+1DHS5qTNu5b8iZaK1rhr3r7eWZQvc44fn371s3H+rZGRU+bXy3rXsFcmupEwcpN/b041eV3Z5eFzX8tLr4/vAYT8S7c9mq88WrVHLJWqD1cunOjyPUevOPS8tLkvXekgIqnn78vtIHftxK9sBERERUffrNRmitNUqoJCA4ZHZ+KC8wZRCBSyPIfXI06YcyLzHakrnW6bGl0BClUdkd1SwMSEAFdxY5ToAMZIDo3FOyndUqfd36KZtoUI1vKEczZMgicgcdULXL/OTdusqnHfGleDJqt+a7iZUmvEiRMzLFtSkz8O4glzrs+QAUoPyd6ly9f6GtjTXa2YvzhVYJ9aSNbBP4OOm3gTsfzUqsLEkjFZBxewFqN16FAljTVO3dmaC+hcuQfzh9TqjJPW0pn/hTEAFAHp8ndkw5c/diqZnTPlWtU6fU/MjJ99z1XrR47ZlnlRQlXcSdXr8BQhhZrjZX8Z4HSzqenATrrlNmpip8XWwaKZrZ0jUdJP8f7LK1PiNo+9tuUmaCsJSRn9qprsTZ01x3Mp7zTTV65lPEL/IakYm5fEVZpmpl5OJ0/V84sy/Owhz1tUzB4DRUxCnZsfKDoWnFzYCif4yXUfdfj980ozx5ZVqWJahBGZmnnTAYm03tVtdGUUhy8CZF/W9lOhl+WOrXJalyTheWGbmWbYhBkNERETUA/WagGhgMlDzUTh4seQiYYjEDo/pe3x0piV5iA6IzgdV8KECiQlR9/74vpMBVL9tMj1R7PKSZSoQab1pW82frKzN+a+OO9NtDz0v9YdxQs/LJtSp889kf6b+DKjC0aIy896tCA9Oz2lDdsjb1f5BuPhl7OzG2VITAFSeRKM/rQMbyGT08x/FWdeJe2suHFLB11zrXpOw+YjPSETio6ZZn53hyRysgrnf44I11LpFY5CQPB4ppnmgz0roWeoP4JwOPPbiYnAQ4mTRy/hVZc2CRQki4zNmmiaGruyXh7jr/WpZPmMtS8dkXDN6kP5bdT12Fkpp2v0JMHFJs/ut+o8dEV4nUZz61eenJHBrMdergp63XtfvZFodWbdxU0cCh/eYeVFB03vV6He9WWeyLF+WGXAtSyIiIqJeoNcERLFlWoHSDisbY72sQMa67+dpVNYDabO2Y9qyhdZXSHNOZDtdOuJaCRaaMfcnncaPdaAQ7rhBmnaZzIXJXkig0W7StMtVT8R9UO0gzdLC9UgmyzsCkaAzNlc2Rl52BkqCGhk+NEYvg8jgsAvwfh4iIiIirdcEROdUYJM4VJqT5WLIKPu+DCurIs3VYmdnrI4MDknLnyHDw5mj9BkxeoHrqFw1fck6fejKKCVi4DDztgWhj6qA5NEYoudlIVLSY2XBosk9RPvw9osFZrj9JCMTP/H76G+GO1c1mupHIF4HNfMxyLnXp3VNa36Kuv1nTLDmridMbs6Pl+Zh6n3cyh+HMzWlNbiYNBhXy/tFT4UzQZLpyhjT9r9148c4m5HbrJMJ93TbQjqxSBh7t34vTQKt+6Cs7En81BaCHQkOt6r141cbw1Ume5bXub2z9f/BeBUQqR+FjufantGJXAaTMfC2dM9MIxEREVFv0Xs6VZCOBmZZZ7k11VVIG3LCdDQQ1dmCq5OEcAcH7g4R5P4i12emw4IBUgbTqYHD3WGDocc/hhtidvBgcdevO1X4fBXGLQ4gsproThsUd6cKs4BDOttl/X1wOoVoT6cK3iJujjc391/8gXREYDIocq+OCkakkwJEjKuYm+a9ypvku7o5mKp36yeIH1uDUy3cPyI33jsBjOuGfD0PrmZl7g4F9PhVB9Dgv0kFEdZ9R/2f+3f4MlUUoepoCI5HnOlUIdbf2uZOGFzz49SvuTstiCXcSULj/p1oHD0GF38k47s7ilBMxwSR82g6PTBD7uUT0amCPb8uEctSRHeS4JS51kezTicQOY+K3cmDez7teXG2FdMphTVvHc/EEREREXWnXtTLXE8SHaTQ5SG9p0X3cEfN2cvppy028yMiIiLqi3pNkzkiIiIiIqLOxgwRERERERH1WcwQERERERFRn8WAiIiIiIiI+iwGRERERERE1Gf1roBIuqN+djvGFcjziJobUFCMaau9nknUCul6uGg54qQL4e0bmj2HpkvItGSaZrBXk+VXON8MdKH2LrM2jS+9sMk6t7vU7nrSNbU8gDW1Q9tae+e3+/++lsn8yAN4r7KWQ3dsN0REREQeete5eMky7Hpktn5+T5eRB3wiiIt2N846QGrvyat1wqcDLFPSXuET5s24dqX1IE95Boxd1r758SBBjKpnUNTDT2My48rLnp+OcS0b+/zcYxnLc3/sacpLTqC7hf23Rp2ou+enLcssYv6lLtffm+A/gLo5C1A7W7oMN8vEHldezvKR5xaFy1udrntZtrr9RdatX/pv9p5mrO1SRGyb9nQXrQmXmVf0/MsDbBvlIbFEREREl0mvCYh09ufZ7fqVmW8KNXkmkFU+IZBoyoz5L+Ltfe/ghQ5fgFYnqotuQuMzcuKqXluDiJ9qnwS6TxqfQn9TKuJW3ov4wwdw1gw7QYA9ftSJ9jX2SaZzIvkUfNhpTVO9zvrv1UFC05rFTlnt7J2qfo/ArdUTYaHmfy7QsP+MGVZcQU9EsCXleSdRZ6atH8apuf4u+8GerYi5bDyXsfVAUPtvdj+EtNkya0XM8Z0TdtdDS+VvHfsx6tzLRUgQc9UfzDweRYIadgK6WGQd2uPPXo8G/5jwNpI5GPHBGuvhs9penCsI/51SP8zn/QtnAvYyeOYA+o11bTtT7fl3BZE/sJelmuY349Wytcq1ZuMX44w9TfWq299gghNXuUxzrtm+1fKK2C5TfmzVo5ZF0uhPTIC3AKHgTbhGyjeudMbV83PqDJoqpSIiIiKinqPXBETni+Zj1yNbUGOGLblIWz0PadVbdObog/IGU94BG59AbcE6dRIqJ4NP4IIu3IuLwUHOCXr/sSNw8UsrGOhfmIsm5yQe8NlBjjoRTvGXqaDBPafuE145Oc4NBxvJ4xF3yPosFIw6gdXmIz5jEOIyzaARtzIX/fb/3synCm4edQUV+u9oiQQyMv9P4O+mRJNloOdRvVRgkvgD62/qP9aPho3N6+xfuEQFN+vN+OokvjXqhDrWsvFaxp5aXWZRYo0vAeTcqxDSf69aJ/XWqHoZLCs2Ay6l63DKLq88iUbrnTcZJ8MEQXlTEI+T+NoOoiV4zJiJ1G3qfVRwrNdNnlreb6lpqfhPMigJJgiKmzpSBUp2NmUQEv0fR64rFaBdWGY/pFaWq7tH/djjh83HwAl1OOsEuy71Mu/RZLtMtLZLyaomqyDoNqlQyl2Bum3R95FYV+bMm/weJMCVID8cYBMRERF1v14TEMWWiYHJQM1Hm8xwlOKlmJEzHQ/GOL9tqwvLJEOzRF9Zj1cn1Wc2SqkVpCQ+KlfbzQmupk54JZMS44Q63KTIlY0Q9QdwTtdpnfz2u14FBht/r4ImdcKsxx8DVFmfh6mT14nB8MnrojFIqLJPNlsnWZq4UvvE2c2V9XL+psno51f/TY1uMiflR2OfQMek6r4tFHPZxF7GloS5Zn4kC2efwMdaZi2JNX7mYMAJKNun/w/GqxN+FSC29AQvCaCeOYkEmXcVgJ2WIPUbk3mR4LFqJ2oloxK9PCRwCIbXpQQMdcFcvQyS8O+u4OGMCppet95K8OVPi/wxS0Yr9UPn725tfB1gf+BaHna2UAJtOxjeuDNyu/xMj6nI31WGuEekieAYNDoXFGx2kGemT0RERNSD9PKAqKtZTcLkJF2yCE157vsmjprsgnmpE1s5qUxIHo8UfcI407zfgIFLliNJBTDNshGe3BmlJ9CoTmbdTY0is0Mta37PhwRTg5xAI8V+XzhfN8/qtz9WxseVXZi9Excnfh/9kY44d2AXwRVYmeZZetlcG7Vstsln3sv4wsM/NtOU5lx++J6LzqZEilv5r2aa1t8TmQGJFHe9RHntJ8szIbg+ImiLeV+NBBQSCMn8lw5Wf7croPPkyg4ZUncSXtXL4GzKT2NklGKQ7Nejg3H2R61lCm0mwH7KFdw62cJX1d9iN7GL2i6/abC2S5meBEJzVbkOAu3xDTvIe4/PgCYiIqKep5cHRJU4p4KLxKHS61wuhozq7HuI5KT/KBr1ya86GSw9inh/unpfjab6EYiPaqrV7B6f+gOok5vm/6o+tJsdSfOpmIHEZFwzGmjcHZlxkcySz/8J/u5kc6KyQ2Ljxzib4WqG5yLZF3uerOxC9H0jZ6z7dEymwmkSONbOEEnTK8kumJP0vDT003+LexmoACjiHiL3NKxMVMxlM0c+81rGka72D4px833kMmta89PwNOTvaXb+HR6/6csg4kdP0T8AyZhFZO1iUsHKb6xgKLqJV/NlbAVcjYf3mMzK71UQ7Ec/3aSsBYtmRmSHZJr9/Gecv+/C1g+bZ4KUuKk3ATIt+XslEJNgSLI0HvFHxPgybAfY7YhX9HaZ+qm1Xco9UVUfWwF66TqcrXI38XQFee2on4iIiKi7XJV+48hecZriW7YdYyPOk6tw6JFlCElX3LMydElNdRXShpzAB6tW47wUSED0cBYqnut4szk58ZMsikUFBs+Ypmb6Kvx4xFsfoHF/9ImyChKK0nBO388jWRDTVE4FAg1BdUL6lqoHXnVIhmUmEqRQAgfXPUF2hiL6pFyfCNtBSdR3WiJ/38AvF1sZD1cdZ/cfUCfjNea+Gdf8xFwGqmzrJ4gfa4/fGrNsJIOhtj6vZSy9tPkyTRAhTcweVnXf1tpyj9LCenLqV3WHVEDd762fqnXyaMT4zvxkupavcXbrj/V9MLGpv3GbWmZ2DGTPv4wuy3nsx+FhTcbPRdOzZtna3OtVkeD1zEbX9iSc9R1VLvRne3BNzPEVO5vkbuYWtcysacq7qO3SrD8d9HjUr9etvyz2fVlEREREPUCvCYiIiIiIiIg6G+8hIiIiIiKiPosBERERERER9VkMiIiIiIiIqM9iQERERERERH0WAyIiIiIiIuqzGBAREREREVGfxYCoo+T5MEXLESfPbIl+Mn93k3kp9Hr6rDw7ZnPU56ZMva5dOdmURWmxzk7Wk5YlEREREfUpDIguVWkNLiKIi+6HaXYlCR5MMJPapuChGGdmL4h6MKZVVrf/jBnuId7r5mVJRERERH1er3kwa9rq7Rh4pByJgQDkgfg1O2ajsgQYUFCMCYFEayQ0oHLDfNRgFcbdMxpITkRyfZUazkBachUOPbIMIeSquh5Dpn6qvhm/Qn8ZWPkG3p8FbMu5C2tNkScJTPJOoq6gBgO3j0GjPOlfMhw/ABr9462n9rue2K/HnztC3gFVO3WA0r9wA/q9tRjnnABgPgYVpeGc/Z1oUv+jN6HxGfd3FKl77Ek02NM19VuZoJlIUO8a96/HqTV7ZWxH3MoNSMKrrvLJGFi0xKpDOPV4iRz/7NYFOLNR3oWnC5xBg55fNe5vvg9U+JE4cZAp/6kqV5ufvSx/pJblNrMs9XeJiIiIiLpWr8oQpQWG4Ogjs/FBeQPSbl2FAarsfNF87FJl8jpUnYjM7y20RlYn6bUbtqAmOQP409OorL8OCVmAb9ljSD3ytB7/g3Ig8x6rnnbb+ARqdeAi2RbXCXzGeMSVLkDt7PUq3LoJ1+gMjgoQ5IRfMjXqFcJMDFoEfB1UKyBTfawCAt10LS8N/YI1sYMhJW7qTcD+VyODIVuG+myj1L8TZzPGoL8ubF8mqH/hEsQfXq/nsXbrUVPqLW7lveHx1csKhqSemYAKjqx6gkhctNxsaCOQ6C/T5XX7gfipk3Spsyy/iVqWRERERERdrFcFRPXlb6pgIkrWKox7djumqdfYdDU8ZLgJcI7jrM78NODc5/J/IgYOy0XCEBUrBR7T4+vMUvKQcEC05i5Makt2qCX1B3BOBwZ7cTE4yAQ8Y5CQPB4ppqmbT8Vobv3H+tW/auYzBwPBaqswhqv9g3Dxy8gsj6OqzARK1Wiq96Nfu+/DmYx+/qM4G5VFaknT7k+AiUua3Z8Un3EUjSY4wsbfqzUwGFfrgTNoeMvKODV9GUS8X1YYEREREdHl08vvIcpF2j0BJFdvMRmfBlPuJRMDk63mdnZWaZduRtcNpPmZyaTY2RQJCvpdPx/9gmU467ezOi3rd71HJwiXLB1xdlO5tipdh1Py9xwa03IHDUREREREPdQV0alCfbBS/bsQNzj3EnnZhLpqOM3tmpF7iPa9gRVmsNNUnkSj04zNRZVDBUKS1blwCEjI83tngJQLh44ifuL32xQ4tZ9klkYgfpG8n49B9v1ObSFN3raqedMZH3c9yqLvIxEn8bUZJCIiIiLqSXp5QFSGE0caTBO4GThXXmXKvYUK5b6iACaYZnbTlpl7jrpS6Tqc3u+HL7p3OOmhLmME4iQIkuAoGWiS2M6LCjzqYtXjRXdjvRkpEwepQGpJePyY5XtxbuMB9Jsr9eaiaesBNFq1eJJOGaz5UK+5atnqDhhUPQU7AV2PKffqJIKIiIiI6DLrNb3MERERERERdbYroskcERERERFRRzAgIiIiIiKiPosBERERERER9VkMiIiIiIiIqM9iQERERERERH3WFR0Q+ZZFd6udi7TV2zGuINcM92BZqzDu2WKkZZlhx0JkSnfhqz2epXQZrHhjH97ftw+vrzQFYuoDWLHqF7hnqhmOMnTez7FkXoYZunx01+GF882QsegppzvxQfbzlLT5GCTl0eN3kv7P/XvU9ISZpryKlkf9YOWzVrpebwNZFytW/Ry3e6yOnrKu+hfGePjvZVlXkzGwKMZyN93Z6/mJnq7+7KmIZ4gVvPiO/t28/WKBKSEiIqLLgRkiW36h9Vwi88rMN+U9ziZUPjIbu1atxnlTclnNfxF5KeV4PicHd68xZWL3S1i7+km8ttsMd6aMH2KJCrZWLP8hhpqiTle1E7VzFuDMRjOsFePM7AWo1c9b6i5mms+0/lyojvpqy7+odfUv+GPrj/FqNyvYUutKvbosqJJ1pZbRZV9XpetwSqa59agpaFnR0umYlLMNdYE5nf8waCIiImqzHvEcomt9PmSP/wfseq/UlDQnmZ2BR8qRGAjI80tRX/40Piwqw4CCYkwIJFojoQGVG+ajBqswbrE1nqO+HB+seg9DVj+G1BPqzC89Q39es2M2Kksk6zIPiabOMKscehwr4zQWW7CrcJOVwYmYhjXtEwH3/Ch6uip4kYBrljkhrDZ1KBHzb8YdINNJt4psej4/d03TVYfQ82a+E7Fs/IdROSSATPmS6zvu8SPqUgHO2w9noeK56XiwLeeSMv4PajDjrl+aAkWyQ/nD1ZvTKN/sPtHOxT2r8mFPNnTwFazfIh+6y49h5+qXcEC9k5PphdlJutQpl2BIrZI39w3GwpyT2LTut/jKjCEkWzUH2zDJPT8tkAxRir8s8sRZsg5jP0btw6rM+XXMx6BtM5FwFdC4fz1OrdlrFatxr73+JC5OHI8EGZaTc6krqtz+jmQ54g+Zk3fJGixSS0m9T3p0POLl+7b6A6j70To02dO3x414yK1kQXLR9MxinPP+6bQovIzDy92i1smTap2ov1c468pZt8rnJVj7svxeMnD78vvgbPZOuapjeSrelXUk623BYOxxTWPF6+9jzlXb27yuZNklBF3LXtjrKiLwkeWi1pV6515X/Qs3oF8wiMSJI/Tw2a3WeogsP4MGszxjrqvSwUiZa33fYa9zW6x5ku8/OhhnZz+BC6bIUoAX3pmDmul3Ya0pISIiou7VIzJEPt9gTMvNw7TbWm77kxYYgqOSHdlRheTAHfCpsvNF87FLytTrUHUiMr+3EKhYjQ/1sBpBTvajMirJ6sxb6vmgvAFpt4abntl1ti4XafcEABV47HrkaVTWSxCyQQdiWaq4coOa3oZy1EuQ9JqargRPs4BDej63oCZ9npWBUuVZ6ixSgh33PIYKXd+XutRnEpBF/F0uEviMTa+y6lffQ+CxcIYrPYCBfzL1pc+wmuCp4Gxserhud2DVKXR26BWoxesiJ81qpkqe1JmjTQdPm3Jg/P0TEdxsla9Vf+fM+60mjVbmwh7fhymSYaj6LdZHBUGXomnN4qiTaS/FODNnAer2nzHDYfETb1JByQLUzt6JsxljnGZR7vKLE+/FwDwTXUQzmYVQ5Tf6JF2yHbUS+LR6qUKyIB0PhoS1jEsQuUmZdfVu9LpSAY4EoWad7MR3TZPIKvxxnVl/st59E03zuzK8Zq+rqlqELvHSy4VlCyKDIU9Wdqj5uhqExNEnUWeyOAlj7WZt7nIVGC2KbprosvEJtX7Wo6FeAiezrtqy/eh1HB0M2VKQ1jWtMImIiKgNelSTOQmKli57VGeMYqkvfxMhefP5CRUsXIcEObnX99pYzdx0xmPI8FbvrXHqcWxSwYEEIBkYq+uKde/OJRg2BMlO3fOQpooSh6qT/opjKuRRgd4sVd7he4JyMWRUogr8PrT+por3UKsCNF2/qC/HFxJMuenlp4LHxWq6EfdYKcVLMSOnbdkhfe/Q/cArbbrCPxx+HMS7zZrQ5eLmYUkILLCaVTnZB2E3jVOvcKaoZWvvymlzxqHTVJWZoKQaTfV+9LPjeqe8GI1VgxCXqUt7AY91NXUU0hOzsdCsk5nDwgFeuGmcK1PkMnTeRPgOlbgyUGpd3T2p29fVWRWY6Axb5Uk0+tOcHaBTvvFjnE0ejKt1aXcowoPTfw3cz3uJiIiILpcedw+RBEM/unehZ1AUycrUJJsskGR8OsxkX6yMjwoW7mkpQCnDiSMNSA48pgKcx5CZXIWj0tROByMm0JCmbdVvo6YCGDD0Oh2YfKDrt15W0zxzP9COKklPYUJnB2JezN+ql1f6PPU3FLYxMxZJBx8vA/e98bgpaUFGagvTkOZadoZBvexmWPOyEYqRUeqdzqCp0rzt6VpaV9IczrWu9D1iKnC9Iztk1mF0ZtA0yxuy3zSP7AXqT+Jr87brSZO5nwAv52DG0iJTRkRERN2pxwVEp0Ih7Ni6Rf/vxfc9FWzUH8YJFWyI+qCcaS7EDbEuTbchYxSpDGdPqP9OHMN5VOKcnW3JWoUR9s0velqmaZwOcJZZ2Zn8O5AJV+BjmqKdLz+MehXw3ODVUUPJMtNELhEDh5kyLXo4Fis4Q/o46yQ26zakJjegtlyCipbp5oYSjNnZNiH3BO17By90dhMeaTI16EZkS1MqfQIdvjco2DAcN8fsje40gjXyf4b6XtsyRDpr1ZYArTvlLUdCRhAX3/sGXwfPoN/10lPaZAy8P/K+oa/r7M8ujdV7maxDjyZ6rZF1lRhjXdWcRGjYKIy3hiI1nLSaxmXcgpGun+H4+3+hgyEryI0k9xD1tHUVtzIXCWqjk2xRxLpa5F5Xe3Ex2JkZvzrUtKXVJhEREXWJHhUQHTxwAC8WPoOj1Z+ZkkhWRkaaxlXhkL7fxp2pmYFz5ZFXoEP/oYIMnXlppUmaq9mdU78OZlz1Lx6Nhmr70vcmfFEOKxNkf0+anpW8qUIoMz3z0vfyVKxGhdyvJE3jdLnJBLmnqzNKW6x7hYT6ztFq05zOrsf0hKebBurMjlV+vmgDKutNkzxVD+R+JhMsxuTuUW9WhnX/U0vjt5PVfEqaTpmmcLo3uDK89m7IGpab60uOmbGr8MctB+HLt5phycvqjawKB9XqtJrS3akG7fGlAwZVJk3rTPMtr669O5XcFL99M1ImDkL8xCVI1d1dtxJwZMy0umB+9CY0PvMELnwDNO3+BNDfX4K4isie45p2f2o+U9+RLrY7GM8U7a5QoWQS/CNNQQskYFmhO7QYjpmyXPX9W2pdlcRYV1W/xZsHfdZ4+mW66q76Mz6FaUo3D/j0c2t0CaamSEA/LN+M34U9zbnFXFfmMw8Jc63uslNGf4I6c09QxLo6HLmuLhw66nynq7phJyIiou7RI3qZG5F+o/7fKxAS0stc6pHoXuAuEwlkVIBUKz3aSSChe5BTMUz5dcgaddjqVU4VR/RKd6WSjJLcRzR9Ka6YBj8xe5lrp5i9n10Cu5cz6WzBFHl7HK/vy0PwuRl4sPiy/7y7Vics54je5DpDu+ZJ1lU2DuawlzkiIqLLpUdkiCQQaikY6nHc9wqZLEvNjmU4bprG2RmicKbpCla8FKV1ATwU/WDW3k6yO9uiH/Z5OZgHjEZ3y+3Bai43B9gxHQ9d6cGQzWTiLvu6Mpmp1OhuuT3Y6yqlfBuDISIiosuoR2SIiIiIiIiILoce16kCERERERFRd2FAREREREREfRYDIiIiIiIi6rMYEBERERERUZ/FgIhiGz0L980cbQZaNmrmP+O+B+R1D3L8plC+r8r+sW1VtCplyj24c4pdORERERFR52BA1IkGFBQ7D0sV8hyicQXyoMsrmH8qxiZ/jO0v/Rteeek17Aua8sM71PC/4T8Pm2EiIiIioh6o13S7LQ9mHXikHImBAJLVcH259ZBWCUIm+A+jckgAmfJBtf0g1IXIfHYe0uTLaECl/RBVRX8nkGgNxBy/CoceWYaQvNUPYbWmGVFPjPITAVNvfbl+OOsAFRCNCMp8ZrrqVsw0JWAaMaQBycmJqKmuQlp6hvN3WQ97NU/1d+ZRFOCFd36GrIpfYcbSVh6FKlmajE/xyk6JSvzIuft24B0VtPhn4c4hITSMGYPrZbwvylzj3IlvJ0mhErP8NP66xRX4REzDkLJpN6g37nGljknA35Lx7TFSkfuz0fjHB3KtecEX2PPSDhzR793l6hsf/w6/22NPmIiIiIjo0vWqDFFaYAiOPjIbu3ZUITlwB3ymHOkBDPyTKt9Qjvr0GUjLylUBlApAJJBQ439QDmQuLrTGV4HGhABUAKPGl7p0oGGNjx1W2aHqDIxdttAqv0cFPaaeXY/YQZVXuaICm5rkAG4wWSLLJlTq8dTLmUfrk+QTb6v5a0DakBP4QP4uf6YVbM2CCsrkO1tQkz7PyTp1lqQx30Joi2R1yvDlDSMxSpWNmnknhv3tdzqz88quL6wRlZQpt8N3QMZVry1/w7DpU5Gig5V/tgKfG3KtJnN2EzudHfod/nraGgy7Ad/2/VnXs/1jYNgoqwncqJm3mHmR6QJTdD0SQOUCu6zy7R83q4yIiIiI6JL1qoCovvxNK2vz+QnU4zokmKBCMjJflKj/K1bjQwlOcBtSk4Gaj6ysyvnyw874vu9kqKDl7XAAo2VioBo/bdZ23eRtbLoqGjIcA1CGsyfUexWQTHu22Ali4FkuPkRdtarrOxJQhUk2SOqeprNKiRg4zCqvD1Zab04cw3n5X6Y7bIgaRwVlMr7JLCUOtZveFeHB6TmtZ4da88WfTXYmiNDpZAz2+zE4+QscapaB8WPkt5Jw/TRzn9C8MbASSIfxn3bgJJkkee/OEsV0Gn/db41Td6IeST4JiEbjxhuS8O15pn6dWRJ+FcB+DLXqiIiIiIi6DO8hElnDVYgizd5MFkdeq1brACVUaLI0aozMxeF7grzKReg/rCzQiCGmIL9QBVl2/fKdll0z9Dqr2Z09L+qlm9F1KRWA2E3lmpHmbSaDI6/Xd6POfNI5pJmcq34JrFSAZho1EhERERF1mV4ZEPm+F0By/WGciMjyuFS8h9r6cJZmQGC0M/75YAPgarKm6fFVYPO9yKxOmDR5exqVqk7dpM3hUV6xGkerE5Fs3WBkHMdZNf0BBWrapsTL3yWj1azZnU3uIdqHt18sMMMtCIZwOtmPFPVWmr059wbFJJmiG3CjbvU2Gv/oZGqCOFmf5DRv63zu6boEg2hI+hZGymT9U3Gbvu+IiIiIiKhz9aqAKDnwmGnSVoVDJoMTWxlqXpMsjTRp227dM/SaNf75ovk4pIIVyeroJmyrV+mmce7x5WVlfOTeIjPes48hM1lN17nnKFZ5WOijKvNOKfkQNaYJnO4AQgVQLVIBVYXcV2Sa8DVvltdGwcP4HGMw+4F/xmzf32Lc0+MWxL53Pkaibhp3C0K7PoY9+pGdZWgYc6fVpM19r5AH6SL7vgekEwbTFO5uuefIi3u61svqXvsw/nNXvfX9eT4cct3TRERERETUWXpVL3OpR0wPbERERERERJ2A9xAREREREVGf1WsyRERERERERJ2NGSIiIiIiIuqzGBAREREREVGfxYCIiIiIiIj6LAZEPVXWKoyL6m57QEGx6SaciIiIiIg6AwOi7pBfaJ4nZF4MaoiIiIiIeoRe1MvcQmQ+Ow9pZqhmx2xUlsg7eUiqPBxV3jegcsN81FTI+8jxUV+OD1a9hyFqXPt5RpJxmTDqsCqXh7a6x6/CoUeWIaTLZuBc+XFkBjJUubt+wLdMHhJrva8vN89IkuBnloyrVG/BLnlgqy67znzXmk6iHj8zch7N+O56bfL3fjFU5ve4fshrmvy9dv1KxHdc5UABXnjnZ8iq+BVmLC0yZUREREREJHpEhih7/PiYLzffMhU4SFDzyGzsUi8rGJJyK8CRsg/Kgcx7JPsiQZIaXwIDXd5gjezJGh8q6JDxD1VnYOyyheazRGSOOqGne6havf+eVS7B1Nh0CZys7+hgSJq5zYIp24Ka9HnIzNeju1TiXD2Q7M9U7zeh0nx/14Zy1KfP0E3kQoVmWAdg1uf234tkFWz9KXJ8CbjGpofHDQdDRERERETUksseEF3r82HsuH/ArLl3RLyu9Q02Y1jOB1VQkxzAhGe3u4KMXCQMkeLHdFO0CYFENTBEBUSZGJgM1HzU1sDAGj9tltWkTWdahgx3mrXV/EkySG65GDIqEfXlbyJkSrRhQ5AMFUzppnFW5idxaK71mSNy3iSzo5vRLQ6o7yZi4DBd7E0FhV/YwZHt8xMqeFLB2mJVjxPI2Yrw4PQcZoeIiIiIiGK47AHRqVAIO7ZuMUOWo9WfYdd7pWbIcr5oPnY98jQq603gok/8TXBhMjvWS5q6tVPWcBVOuDIs8tLN6NpnwNDrrKZ5zryYzJFmAhYJlKq3WBmfiMzOFtRYI7ZfxWp8qKalM2Hp89Q0CuEzHxERERERkbce0WROgqJdZeEAaHfZe+ZdtDLUrJKma+qtzuBsQp16n3ZrdCcFVrM0KztjZXMsZTh7wm6uthA3SEZJVLyH2vpwc7jWmXoCd0QEHufLD6M+OYAbmjWTE15N2o7jbIU0wZsRvpfI0YaMkYsOGndUqXfXIcHpnU7uIdqHt18sMMNERERERGTrMb3MHTzw/9OB0cEDB3SGKJrTtEw3aVPBxWtWBidUuAU1pimd/lxnjlTg9Kcq05TuMQw8IUGCJfSReq+zKPOAartcjf+a3JMj5VY94wqim7pFChVKtspuHmemW7EaFeUNTtO7aVHdZjdT8qHuIEHqmOA/rLNfDlXXUQn2TF3N70VycfdiNysD9eUbnI4fiIiIiIjIW4/qZW5E+o0xg6FLFdmbHBERERERkaXHZIhEVwRDREREREREXnrRc4had1Xc1UgcfB3iBwxSA1eZ0h7mm2/QeP4MGk4exzdNX5tCIiIiIiK6HK6YgEiCoZQbRqJf/2tMSc928cLfUffFpwyKiIiIiIguox7VZO5SSGaotwRDQuZV5pmIiIiIiC6fKyYg0s3kepneOM9ERERERFeSKyYgau89Qwn/+y9x0//+T2boMump9zkREREREfURV8w9RCnDbkL/+IH6vQQ7NwzVby1njqB606u4YAaFHge78cn/9w/Af3sQN0253nwChPY8jtr/MgNd6ELjOdR9/okZIiIiIiKi7nZFBkTat+7F8LmjcN4d3JiyAWYQX0lABKQ+NBUDDv8vHHv7Q/OBETH+l/ji+RdwVoKncadRe3oUUiXoigq2Hlz3EqarQOsHy181Jd4YEBERERERXV69qslc9vjxMV/yQNfW/RNSVXADFfh88vzj+OIrU2wMGD0NCea9JXr863HDwnvRXz4aNApJISnfjZB67/tv+gtERERERNTL9KqAaOy4f8CsuXc0e4VCJ80YLfjWdRiAczhdEZUFwh9Qu/UIzkMFPA/9Ejc99AR831LF/y0TPtf4Z6u+VIFQkhUQ4UvURWeTjBeWP9Cm7BAREREREV1+vSog2rF1i3kXVvTqr3EqFDJDHfS3V3Hs+cfxyfP/C7VnBiJ1uskEERERERHRFa1XBUQS+OzY+qYZAo5Wf6ZfbfK34ziPgeifKgP/hEHuThccH6LxtPrv9HFc+K9KhNT4SVnj9CcJGdcDX1XirB7yJvcQvbXuXjNEREREREQ9Wa/rdvvggQP6JSQ7FIvuUtt0huCbot7re3/+gNDhc9bwQ/9NBTfnrJGl4wTdVM563TD0S3whPc9JU7o9X2LA6P8jqpyIiIiIiK4UvbKXuWt9Pvh8gyOyQ816mesF2MscEREREdHl1esyREKazrW5qRwREREREZGHXhkQERERERERdYYrJyD6phc+X7Y3zjMRERER0RXkigmIGs+fMe96j944z0REREREV5IrJiBqOHkcFy/83Qz1fDKvMs9ERERERHT59Mpe5rzEXX01BvmuQ/w1g3DVVaawh5FWco1/P4MzoeNo+vprU0pERERERJfDFRUQXSrfsu0Yiy3YVbjJlHSlhch8dh7S6svxwarVOG9KPeUXYtos4NAjyxAyRZZ21tMZFj2F1LyTqNsIJD16ExqfWYxzpeazyyFvOa5dBJz+0To02VuzzOPYj1G7rNgU2CZjYNESxJUuQOPYf4dPnjfVbBwiIiIi6ivYy9xlswmVj8zGrksOYjqrng4orcFFBHGxM4MhCW62b0aq/Spa3mUb6dfBM2gMVpshIiIiIuqLmCHKWoVxiwNINoOoNhkinZHJiCxTBhQUY0IgUb9HRFbGZGr0+wZUbpiPmgopm4Fz5ceRGZC6TDlc04yu238YlUMCyJQPdf3vYcjqx6xhR8v1xJ6XXKSpegYeKUdiwPpOzY7ZqCzRIwHzX8TbD2eh4rnpeLC1hImdISqowcDtY9A4+wlc0JmX7wOH/UicOEiNdAYNz/wU50pl85qPQdtnIkF/+ShCanwUbkC/t+zPhRrnN2k49zKQJNmegnVoUqX9CzcjIbgep9YAA3+zBInXWmOjaidqHy5G/+c2w2dWk+3s1gVq6pIhOokG/3gkyh9rxsc34QzRuev/FUn4d1X3XuuLRERERNTn9PEMkQocVECB8qex65HZOGQnCyRI0s3TZqvyLahJn4fMfKs8SwVDEkjI+OGsjAQbKgCRoER/RwIQ/YGSiMxRJ/CBrl+9/95CoGI1PnRPzy09gIF/MtNNDuCG/DLUrFLDO6rUh1Vmnkz9MeuJnJcPyqH+xkL4zKdpgSE4qssbkHbrKgww5e2y8QnU6oClGGd0MGQbgUR/GWpnL0DdfiB+6iRd2r8wF03PLNDltVsBX+F8fB1UG1+m+lAFV9eunAzkpaFfXY0OgmLbi3M/MnXMXq8CnVwMvO0qXFimhp85gMb6A6ibY31+ZqP5SsZNal6lbCfOZoxBf12o6imwxmla81MGQ0RERER9XN8OiLKGq3ClAbXlZabAGDYEycjA2Ge3Y5rJtCQOzVUByDE1tgoqZqny1a5gIus2pCY3oPI/Yt97VPMnK3AKFapgprX7k+rL8YXO2lTiXL2ZbnvoeVHT/Miazvnyw6jHdUjI0oOq+jej7kEyipdiRk4bskMtOoOGt6wKmr4MIt6frt7NR3zGICQ+aprAzR2hP7f1H+tX/6rxMgcDdvO15PFIMU3mfNjpBC1xK//VNKVbYmV9WlNVZu5tqkZTvR/9VABFREREROTGe4hiGDD0Oqu5ms7GWK8PiyRoMvfrSLYmOYAJzxYjzQQa1BJpJmdnd9RrWbEOmPpdfzf6Bctw1m9nbwzJ9rjG1fKWI2linalnPRpUsEhEREREdKn6dkCkMz6JGDhMBhYiRRIais6q6OZq1nAzJcuwa0M56u3vmnp0c7jOkn8HMpOjs1fhTI+nivdQq4KFtO9Y8zIgMBrJ9YdxwmnC50HuIdr3Dl6Yb4Y7jWRnRiB+kRm0VZ4EVCAkn184BCTk+XHxy/etz7zUn4TuqDxvCuLdGSLp3CF5MK42g0REREREbdXHM0Sb8IXcSyNN4J6doc7NpUGcUrEaFU65vEwmSO4t0sPqJZ0ZVG8xnRJsQqUESOnzzPjbrXuOvEiHDWqcsRKAme844+vMk6pjVgZqdrjuRSp5E5X1Kuha7JqfmPWUoea18LxMCKjY47XL0AOdYy/ObTyAfnNNkzn10vcMSRBz4wjEfbnXCo5UgNNUab4SS+keNH5jmtKp4KpRbqlyFKvhEfBts+ofFB18ERERERF5YC9zPYjuZW7U4e57nhARERERUR/He4iIiIiIiKjPYoaIiIiIiIj6LGaIiIiIiIioz2JAREREREREfRYDIiIiIiIi6rMYECnSu1tE19cRFiLT87PW9S+0upmOW7kBqUXL27HA52PQ9qciH1h6qfKW41pdp9TN7qmJiIiIiBgQKeeL5mPXI7PNM4W6RtOXQSBYgyYZ0IFJ+Lk8qW0IfCSwcsZvV2AVizws9UzLz/0hIiIiIuoD+nxA5FtmHrRqP+zUsLNG056dhzRTZlvxxj68/8bjZqgDStfh1OwFCFUBZ7cuQO3sJ3DBfKQzSTrwmYkEV5kPO9V4Mq56FayzAivFHSjpB57qsg0YuPIpp5yZICIiIiKi2Pp8QBQqnI1dG8pRb4a1/EJMCACVG9Rnj2xBjSnuiAvLFuDUmr3AxidQu6zYlHpY9BRSRn+COh347MRZU6yzSxljmmeR1PjhQGknLk68FwPz5INBSBx90qpn61EkjJ2vR7cCMQm+9uJcwWKcK7WKiYiIiIj6KjaZi2HA0OuA+sM4UWEKoqy9KweT7vqlGeo8cdf7cVYFLXb2xyHB1DMnkaAzPhtM0AP0HzsCZw/ZQVYxzu1XdWRaQ049lSfR6E/jiiYiIiIiioHnyT3I1f5B5l0Mppld7ewyxD0aDoqIiIiIiKjjGBDFcP6r40DyEAyQgfxxnX8PkYevg2ec5m39C8P3EEWSDhGsd+7xpVe6gRPBjhKIiIiIiNqhjwdEuUhbvR3TFgeQjERkLlbvV6/CgJI3UVmfgbHSqcKtQE3EDUadwPQy58sAEuZKMzirl7mmNa+iwT9Td4SQENyJBjPdcEcL8lqC+MOv6vt/mtYsRgjW+NIJA7byviAiIiIiova4Kv3Gkd+Y90RERERERH0Km8wREREREVGfxYCIiIiIiIj6LAZERERERETUZzEgIiIiIiKiPosBERERERER9VkMiIiIiIiIqM9iQNSjTMbAos0YtEgezLoZqYX2Q1cvH5kPmZ8wmccNGJhnBt0WPYXUouWI089ZknGuMh8QEREREfVMDIh6qK+DZ9AYrDZDnUMHWc4DXqMDnU5UWoOLCOLie3zEFRERERH1bH38wawLkfnsDJwrP47MQIYabkDlhvmoqZDyeUizRgKqt2BX4Sb4lm3HiCENSE5ORE11FdLSM1Bf/jQ+LCoD8gsxbZbUER7ftuKNfZiDbZh01y9NiRfJvixBXOkCnLt+A5LwKk6t2aszL9defxIXJ45HgoxWtRO1y4r1N+JWbkDKxEH6feP+9Ti1ewqu/UENTpnPhYwz8MvFaBy7GfGHFuDMRlUoWZxHB+Ps7CdwQTI7c0dYI+MMGp5ZjHOQz8cj3pRq9QdQV7AH1xTdCxwOInGifMeMX6reSj15J9U4NRi4fQwa56i6GRMRERERUQ/GDBESkTnqBD54ZDYOVav331uoyjahUg3vkteGctSnz0BaljV28om38UF5A9KGqO/sqEKyPxPIWoVxs4BD+jtbUJM+D5n51vjtsxfnCqyApWnNYisYMuIn3oSmZxagdvZOnM0Yg/5SqIKaJH+ZKpPy9WgcfS8GogYX/WlqxUpw9ZQe72q/qq9SvuBh4xOmDvXaqgKdH8wHStfhlBoOVQFnt5rPCtahSX9hEBL9H+uyuv1q3qZO1qW6Hj1OMc5IoMVgiIiIiIh6OAZESs2fVuO8eW+TbNC0Z9VrcQDJKmgaOMwqrw+ayOLEMes7Q4ZjwLAhapwMjJXxTWYpcWiufKqtvSunDdmhVlSVWVkYVKOp3o9+eWrlTb0J8RkzTRO4JUhM1mNa8qboldsvbzL6+YO4qL8LJMw1TeYevQmNz6igRZfOxyC7KZ2TKWrJGTS8ZWWgmr4MIt6frt8TEREREfU2DIhiyS/E2HRpPmcyPqbYyzVDr1ORUrnOMumsknrpZnTdQJrJOdmd2dJ0TQVMGIyrM1WwUnpSBU2RwYqT7dHjWmX9C2ein13P1qNWIRERERFRH8CAyNNxnK0ABhTMCN9L5OHv5YdRnxzADR7N5OQeovffeNwMdR6dnRltZYLC9uJi0I/4scDFjXvQ5M9FPE7ia/Opl4tfWs3z+o+NzBBJ5w79rjdN4oiIiIiIrjAMiGIp+RA1pgncBP9hVNabci8Vq1Eh9xXNMs3sni127jnqUhufQCg4Hil2c7ft1j1DXweBBL/6X4IjDEJ8sMbc+xPbhUNHnaZ08cEDaDTlomn3J8DEJVb90qW2KSciIiIiuhL08V7miIiIiIioL+MFfyIiIiIi6rMYEBERERERUZ/FgIiIiIiIiPosBkRERERERNRnMSAiIiIiIqI+iwFRH+Nbth3Tli00QyIXaau3Y1xBrhnuKgV4/u19eH/fO3hhfqxhIiIiIqLux4CoFxtQUGyee2ReEYFOD7NyDgIntmFSznQ8WCwFRXhoRg4m7ahD4Aed/9BaIiIiIqK2uKKfQzTttjzseq/UDHnIWoVxiwNI1gMNqNwwHzUV6m1+IabNytClqN6CXYWb9FsJQiYEEvV7UbNjNioh4wKHHlmGEBYi89l5gJSXqBFi1KPrkAe+DgkgUybsqj9yfqpMnZHTrS9/Gh8WlZmy49Y45nsNarpfDHXPo/mb4K7XqC/HB6vew5DVjyH1RBWQnqE/13+TzLvXshEr38D76m/elnMX1pqiFqnx/zh0G25fWmQKjPkv4u0f1GDGXb80BURERERE3eeKzRBd6/NhWm4eli57VL+PLRdp96gTfglIHpmtXuaEXwIBHeBI2RbUpM9DZr4qV8HNhABUYGDKdR0t8KpHpAcw8E+qfEM56tNnIC1LClUwpQIQqIDHmh8rGNLTHXUYH0iZGh+BxWZ8l4pjKmQBEofm4nzRfPP92ThUnYjM7y1Un6/Gh3pYjWT/vatW47z+MpCcDhxVZR+UNyDt1lUY4LVsukJKGgrMWyIiIiKi7nTFN5mTYOhH9y7U2aLmynD2hPpPBSrTni0OBxnDhiAZGRirm6LNQ5oqkkBjwNDrgPrDONHWwMCjHq2+HF9IFsYtf5wapwpHi8pMgUVPNzmACVKPztgkYuAw86Eta7gqbUBtufquBGKmGd1YFehgyHAV4LSsvvxNK/hyeCwb25q7MKlN2aECvPDOPrz/nYP4xwejskOieClmvAzcp+8lusoUEhERERF1jz5xD5GdLSq49yemJCxUKNkPyfYkInOx1bmAFfiUWxkZ85Imau3VafX4E8NZHfPSTdo0E3DpzNIG1FREZnYk49NRsZZN+xXhwek5mPRRNv7zhRh5IGkydz/wir636IptvUlEREREPVSf6VRhV1kpil79tRmKtgmVjzyNynog2Z+J8+WHUZ8cwA128zbj/FfH1QhDrGyLzuYYn59APa5DQpbc6zPDKfeqx5OuJwMjogKP0Edyf4/drC6a3GfUPNiqD1aqfxfiBtf9To42ZIzCIpeNQ+4h2vcGVpjBS1JXo8ImIiIiIqLud8UHRKdCIR0Ixe5cwepy2uql7TFkJqvgQjo3qFiNCrmXZpb9mWkyVvKmCgxMRuZWoEYFCVrFe6itt7IoE0Ydd5V71ONF7vPZUYXkwGNR011m3Quk6rfKC+F1V5Q0dTtxpMHUMQPnylUw5RL6j3IdpOnmd6vlXiEvHsuGiIiIiOgKcsX2MifN5LLH/0Prvcx1WFRvctSylW9g73cOYnJ0b3KSaVLlk9jLHBERERFdBldshkgyQ10XDFG7rdmG8iFzmj+YdVYKyt9iMEREREREl8cV/RwiIiIiIiKilvSZThWIiIiIiIiiMSAiIiIiIqI+iwERERERERH1WQyIyLHijX14f98+vL7SFOhnDamyNx43BUREREREVxYGRGSZ/yLyUsrxfE4O7l5jytbchUk5v0J5Sp7pGY6IiIiI6MpyRfcyN+22vNa73s5ahXGLA0jWAw2o3DAfNRXqbX4hps3K0KWo3oJd5qGkAwqKMSGQqN+LGnkOEWRc4NAjyxCKfj5RjHp0Hf7DqBwSQKZM2FV/5PxUmTojp1tf/jQ+LCrT733LtmNsun4bWY8KcN5+OAsVz03Hg8VWUYtk/B/UYEaM5wGteOMdpL3VxnqIiIiIiHqRKzZDJA9mnZabh6XLHtXvY8tF2j0q+JBA4pHZ6mWCIQlKdIAjZVtQkz4PmfmqXAU3EwJQQZMp13W0wKsekR7AwD+p8g3lqE+fgbQsKVTBlAqGoAIea36sYEhPd9RhfCBlanwEFlvjq/Kx6RLEybjqZQdDnS4J/pHmLRERERHRFeSKbzInwdCP7l2os0XNleHsCfWfClSmPVtsghJl2BAkIwNjn92uyuchTRUlDs3FgKHXAfWHcUKCprbwqEerL8cXkkFyyx+nxqnCUZP9senpJgcwQerR2aNEDBymPvj8BOrV+8zFqnzZQmtkW/FSzMhpW1ZH3zt0P/BKjOyQWHtXDg5+h/cSEREREdGVp0/cQ2Rniwru/YkpCQsVSnZFsj1WYDGuwA58yq2MjHnZTdTao9Pq8SdazeFc9ejmeBWr8aF6/0F5gwnqCuGVC2uJBDyTXgbu8wh4JGDK/kiN4xEwERERERH1Vn2mU4VdZaUoevXXZijaJlQ+8jQq64FkfybOlx9GfXIAN9jN24zzXx1XIwzBABnQ2RxDZ2quQ0KW3Oszwyn3qseTricDI1RQ5hb6qEoFPHazuubOF83Hrh1qHDMPmtwTtO+dTuoM4TSCn5q3RERERERXkCs+IDoVCulAKHbnCrlIWy3N2eT1GDKTq3BI7sOpWI2K8gakzbI/M83pSt5UQZNpAncrUKMCKK3iPdTWWxmmCaOOu8o96vEiGR8V2CQHHoua7jIcqjZN43S5yQRJhw16WL1mZaC+fIN1DxQREREREbXJFdvLnDSTyx7/D633MtdhUb3J9XaSUZL7iKYvRZEpshTghXd+ArzMXuaIiIiI6MpzxWaIJDPUdcHQFah4KUrrAnio2YNZf4ZAXSmDISIiIiK6Il3RzyEiIiIiIiJqSZ/pVIGIiIiIiCgaAyIiIiIiIuqzGBAREREREVGfxYCIiIiIiIj6LHaqgAzcvvw+BBLV24aD2LTut/hKF/8QSxZk6+f9hA6+gvVb5MGnnWjqA1iRdQRrXy4zBa1o7/jtkot7VuUjXd56LAN8XtK5057/Iv54P/Bqs26+bQV4/u2fYcJV5Xjec5xWrHwd73/nECbd9UtTQEREREQUiRki7TTKNz+JtXYgYJPgYPWT4WBIAoRVv8AK+7X8hxhqfdLLleE19Xeu3XwQIVOiVf0W66W85Jgp6CB5xtG+fXhfv97AClPcsiI8NCMHkzoaDBERERERtcEV/WDWWXPnYcfWLfqZRN4kQ3QnsOVf8Ed3EkiCn3nAm+4gKaps/P2/wJQTkj0ajntWjULwoA+B7CT1iQRYVn1D5/0cC3WZorMsx8IZKUd4fKlz5jCr1MpMwXP843n29K0Zl+/eXPEk/pL1c1x3IqTmZbgzrvW3ubJhEeVGrL9ZxMpOyTOKZgHbcu7CWlMU2+N4fV8egs9Nx0PFwD0vvoOH/KWY9FaazhAdqQsgIKmp0+V4fsaDKPpmhRp/jpWt0sW/woylJiSSjM+sG6331dsw+e5f4hu99co07O9Uq3nahrR3foaAWewW9fc+NwMPFrOXeSIiIiIKu6IzRCPSb8SP7l2IabflmZKuNBwj8TusXf0kNh0ERo7L0AHGHRmf6SzT2tWvoNyXj3umVuGP60zWRQIk/ZkJTFTgMRN2WQlC2Xfi9gzv8Q+Uqgll3GKyVLm42XcQ7+6W90kIZJy0pluiAqN5ViZr6Lw74d8n31evzZ9hpCnvUiuzkV5tPdhVQpGipaWoTs/WWaKrkgLwf5SDSTk52KYCo9lPyBd+ibvVsJRN2vGZFBiPo/jWOjxvPtuGOSh+4ipVXoAX3pkD7MjBZP2ZBGhFeHC6+b4KnHRdOdMZDBERERFRM1d8kznJFE3LzcPSZY/qAOmSJWZjoWkyJ8FL+N6iY9hj3n+15V90+dBxanpVfzbZFhXY7DsGX6oKlDyMzxqO6go7C1OGd1W8408zg7Gouj/FYCuomToKPmdaKg7YZ7I8u4+gOlHGyUB2RhLS801zP/veoI5ac5cJPtqrGsHT5u3pcmxfY709qgpTht5jDcQigVVyAA+Zpndz7BTS/CnIglUPwx0iIiIiai/eQ9Re5r4inWXpkg4O2qMKB6t8uHmqBFNwArJmGk6aQEmayZl5l1d007hukQ5/RFO2dnCyPdbr7jUMgYiIiIjo0vSJgGhXWSleLHwGR6vdTbC63le1IficJm0ZuD1nOEK1JmipOYmQLzWiydpXJ04jPSvXDOXiu9lAsMYMxhhffPXhZ/BlPYCbcQQHTJnb0HkTkR6qVYFPFY6HkqymfJ1B7iFqSwcJaw6iOj0PL8wHdAO3F/OQXn1QZ5bC4UwBJquArmL3a2Y4hk+DOG2a2kUo3oMKBDB7pVV/BPlOSpqqnYiIiIgotis6IJIASAKhXe+VmpJutvslbKq60TSxuw8jq17Ba/oeH0U3d7Ob3/0ct6s4RZra7US+1aRtVT5Q4ur0IMb4TrlvuIomIrNVdtO4hXIPk8lkHXhZ7ku6z9SvXvfbwVdX+iXu3lGHwMP7sHffPjyUVYHn7W6wk+wmcD9DVsWv8dDrLWR8ipfi1Q+GYI5pMvf+vndUkCUhUBEefLkcKbOs+iOCtOK9OliypmGPT0REREQUdkX3Mtdy73K2dvQy1yPl4p7lqXjXNZ92b3NO8NVW7ellrhsUvPA27rvqlXAvc0REREREneyKzRC1LRiyJSGw4BfNnytkOlBYMq+Tmpl1KgnkJNMzEcEtlxq0yYNZVV3RHS1IgCTl+dJ9dzfRTfGsLNBDo4/gFQZDRERERNSFrtgMERERERERUWvYyxwREREREfVZDIiIiIiIiKjPYkBERERERER91hV7D5H0tDZzmLw7hp2rXzLP6JGOCO5DIFG9lQesdnYPcu3tma6Le7ILLwN5IKvdi550oJCPdHnb6cugAC+88xPg5el4sNgURSl48R08FADKn5uOh9Q47d745r+It+8HXpm+FOxugYiIiIgu1RWdIaoueRJrnWDIJsGBKncCAbu3NvvlesZPL3fgZfn7X0F5gynQyvDaalW++SDa0w9fc4/jddMbnPWMH1PciqKl0zEpxwqY2JsHEREREV1uvS5DNO22vDY9aDX2s3hiPXMoqkyeuZNzUmdOhkodJw7Cl211Rx06+ArWb6nC0Hk/x8LsJP1tfF6in88TzsaESUAm02/P+H/J+gWmnLCmI5y/Aw9gSepJhNS8SHbHnhfhrt9dbon1NyuxslOSfXk4CxXPeWd4LJIJ+hn8ZTm4e40alK6yc4N4fvoeTJYMUUUdAgGZSxV8mrpWvLEPc3RaSorL1bh2hkcCqzlWxgrV2JZzF9bq94+j+P05uFE/S9Uqx+vvY45V4KjeYeaBiIiIiKgDelWGSB62Oi03D0uXParfd4f0DBU0mIwKMm7BUBVI3JHxGTZJmWRffPm4Z6rJxkjWRZqh6c9MMNbO8Q+UmunoqefiZt9BvGuCOl/2jQhKdmt1iQqM7rQyWVL/kP36+1L/pxmmvCvNn4IslGO7HYis2aaGsjBZZ4mSEPAfxKScHEzaEUTgB4/rUdbepYalLGebCm/CVryRh+Bz5rMd32DOGzK+BFxzcNXvJ5nvWEHS2rvV8HPlOC0BlS5nMEREREREl6ZXNpmTYOhH9y7U2aLOYR7Mqh9CCux0ZU2q95n3Vb/FelWOcTeq9382n1fhj/uOwZfqHYEMbef4Mu6nGGwFRFNHwed8V/l8v8nylOEvnyfBn2bV7xuWb5r7mfujOqp4KWaY5mztU4SaOvNWskJv/dJ6+2kQp1PSVHjj5XFkp6tl/7BpejdLLSthB1xPWYNERERERF2l195DZGeLCu79iSm5FOa+Ip1lib7nqLtV4WCVDzdPBcZnAXsimr+5nUawxnonzeSseZdXVNO4blGAtBTztt2kOZzJEMnrLhNMERERERF1g17dqcKuslIUvfprM9Q9vqoNwec0acvA7TnDEao1EUhVLUKJJrtjtHd88dWHn8GX9QBuxpHYwVnGDzFlWAjHVTWR9V8iuYeoLR0kFO9BBQKYvdIMr5yjhiqwNyqzVPD/UBFdxZ4WeoOrRvB0OrLtemx2/U+YYbfiGtQl+THCDBIRERERXYpeGRCdCoV0INSWzhU63e6XsKnqRiw0TdRGVr3i6rhBmrINx0zTY53cK9Tu8YU0m/MNV8FEmSkw7KZxC27Ep5tNJkvVvzOUbeqX1wMYr0fuSkV48OVypMyym7oB25xOEsJN4B4afQSvLG2pc+yoetTr7RelgZ1VPmTW+6b8DaywvqD8Eger0zHHjP96dDBFRERERNQOvaqXOWkmlz3+Hzq5l7meKBf3LE/Fu+4e4KT3u6wjuoe69mlHL3Pdgc8RIiIiIqIepFdliCQz1J6sUHp+rIyJ6UBh+Q87p5lZp5LgReZ5IoJbLj1QkaBQslKRHS3Ig1lV+QKrK/Hu4XpmkXTr/TKDISIiIiLqGXrdc4iIiIiIiIg6S6/uVIGIiIiIiOhSMCAiIiIiIqI+iwERERERERH1WQyIiIiIiIioz+pVnSpIr2kzh8m7Y9i52jyHR/Eq7xzt7Kq7i7uzDv+tp1G+OTxPXuWdYcUb+5D9UQ7uXmMKoq18A+/PSkf1jhbGaVEBXnjnJ8DLM/BgMfv4ICIiIqLu0yMyRPJ8oWm35ZmhllWXPIm1MYKe6HKry+nwy3noaS934GX5O19BeYMpMLzK28fVPfa+d/DCfFPcmjV3YVJOR4MhIiIiIqLLp0dkiEak34iCe3+CXWWlLT5nSIKc5g9bjV0eUSZZmwWDsUcFTF/N+znuwGcIZWcjXUb8vMR62Kkex342j8k0ycNQ84frEkcL48PJ0oRJoPZu6s+xcMh+56GqQ/U8/A7rP7wFS1Qc+Kkv23pWkF23cE/bXa55Za1ilUv25WfIqvgVZixt6ek/1nj+MhPYSNYnN4jnpy/FCMkQBcuREgggSX1kZ4IKXnwHDwWkRFRjW85dWKvfW3VZH51G+XPT8WCx/kBnm+boBS/1TMLdeF1nlyJUb8Oku35pBoiIiIiIuk6PuodoWm4eli57VGeMupIvezD+sloyKiWoHjYK4yWQmHcjPt0sZU9i00EfZt6fC+x+yWRdpBma9ZkVmMQeX2dpNh9EqOEgNun6rYDsqy37zXREBrIzQtizxUQsw7Lh3yfjqun48k0mKxf35Jx06tgJu7wLzZ+CLJRju53lWbNNDWVhsskSpWcBr+TkYNJzKjDKfVGFPEDR0uk6MzQp51coP22NJwpe/IkOrCbr8SuQdb81fsELb2MOVLCjvyNBlYrFdXZJvi+B0yTrMwZDRERERNRNelynChIM/ejehZ0SFKXnmyZzCyR4CTenCx0sMe/L8JpkgjJuwUh8hoMmRtEBjC8VQ63B5to7vprOXz734boM9Va+GzoSbvKngqd3dWarStV3Gr5UNdLUUUhPzMZC09wvOuvUPkV4cHpOK9mhWIpQU2feKtVlS1WJUlyDuiQ/RujSWAowOSsJ6bP2Ya80vXvYyipZ5Veh/C0GO0RERETUc/S4gOhUKIQdW7fo/y+VdV+RvDq3k4GOOFARwshxGRg6bjA+LXU3f4sUqjUzKs3kTIbIzjR1rwKkpZi37SbZHpMhktd0K5hidwlERERE1NP0qIDo4IEDeLHwGRyt/syUdJOqWoQSb0S2ZHCUofMmIj1Ua3qJq8LxUBL8aXrA0tL4+rPBzbNFu48glJGP7w456WSWIuXiu9lAsEa9rTmJkNPE7lLJ/Tz78PaL0mitBcV7UIEAZq80wyvnqKEK7DX3/jhWZiO9+qC5VygWySwlIWuqmt5VpkgrwvsV3yDwg8fNsJv1Hf9IM0hERERE1E16TEBU9OqvsWPrm2aou5Xhtc2fYeQCq4nawozPsMnVicGBimPh5ndyb1GL40vzuOGYaZq7he/9UeWh4fCd+HNkd9xO07h8oMRksqp+izflviRTx4pVP8ftJvjqOkV48OVypMwyvczNAraZzI6QJnBOeSv3+Ky9axvqAj/D3vfNd96wgqCiB19Becoc04vdPry+Mhwxrf2oGiNmvR8xPhERERFRV+t1zyFqay9zPY/0AJeP4+tcXYZ3+JlF7ellrjtId93ZOOj0MkdERERE1Dv0uHuIWmNlah5o1pzMq7wnkIBtxar74N/nCoY6yK5Ld9Pt4lXedaymeFa2Zw6wg8EQEREREfU+vSpDRERERERE1Jl6XYaIiIiIiIioszAgIiIiIiKiPosBERERERER9VlXVEC04g27O2dTIKY+gMjur6PI57or7Q7KW45rtz+F/mbw0kzGwKINGJhnBh1e5T1X/8LNGLQo4kFERJdMtqtrV042Q1cIex9yuX8ui9YgtXC+GYg2H4O2bY76XJVtV2Xq5blOFj3VQp1doFP3x9JrZ3c88sCWi3vkMQttPB6Nv3917ONaa8e8rtLWZS/jFS33OPmQY53apiI+N2WyrXluS73vGNkV4lZu6Mb9o/n9t/X37bUvkHJVz6BFZrjDZH64DfQmKVPuwZ1T/GaoBf6puPOBf8Z98po52i5Ezt1q+O6pSDEll+qyB0QDCoox7dntmLZ6FQaYsg6Z/yLyUsrxfE4O7l5jysTul7B2dXd2yR0+SXBenXpCEFm/eyciO0Nnmq4DirvcvbOUk0tn/FbmMaLuiHpcB6s27Iy862lJrIOkB7Nz1S/3+Ppg3cY6FK9lqTk78PAZrPeydK2vds6/vWw8l5n9N+lX1Al1jHo8RdTjWofucpl3d/3ms3Dd6u+UE2annh5wgk/e3L+TNp1EFOPMnAWoXeZ+UrMqm70AdfvPmGG6NGV4TR2r1rqegdch3X7Ma4n7+KBerR4L9+JcgdrOCtahyZQ4ZVuPmmHqGazff+Q+oQM2PoFaVc+ZjWaYWjR03s/h7lFZehju9osf3WzUxDFo2PVveOUl9dp52JQGse91Nfz6btSZkkvVZb3MXevzYdbcedixdQtOhUKmNEp+IabdegKHjozG2FGH8cGq1ThvPrK6df4Zsip+hRlL7ceDtkAFRG//oAYz3A8NlStl+cPVm9Mo3+x+No9c+XN1Uf15SfggJPU8nIWK56bjwbb8zuXE8NHBODv7CVwwRW5yMpuEV3FqzV49LCfOPnPF8exWsxOQk5O5I6xCnEHDM4txrlS99Sq3uact71VwdNocSPoXbkC/t9T4maqOvJOo0+Vycp6LJqlHysd+bHZmctD6Pi4WxP4bRPTfYZO/JyG43iqX+TXTulqVxwcPoN/E8YhX49l/q1c9LbG+8wkujoY6MIYPlP2f+3f4Mq2zbqt++fvGoNFeF4vW4Nrrd+LU7inWsikdjBRnWbTAXpY/UuOpX4ezLPWyt6bRtN+PuC9/qqapRpC/W5blw2pZfuNelq7l7V5vXuQKfV6o2fzFXmZqOr+5F3jZ1C3zrLb/U7I+7fVg5t8tcvv7sZr/SWp+VT0bTT3qu9de/3s9rf7P/Sv6bf2pKpe/aQniSmV8qVCG1XcOB9W6tca1AiK17OfE2oZkOcxEgn5/FCHntxJVLt9V1cvfmzJxkC5t3G+2LSNie+uA8ff/HNedCCGQLfsFoLrEnDg6+wph7y9ycc/yUWp4ONJxEOWhbASGHcPO1dJ9vnsfErV/WfmG9QDjSXdj7TdRKyAW+3ds/n7794jDfiTq5eCxT6jaqX+/kdunUMu1KA3nYqx/TU/vJjQ+I+vWNYJsf2NDaPCPR2KyGjb1u9dT9PoQzbdPa3vRdQinHi+R4zv7xYjtQ5aBzK9srx7LRtjL0mN/3CYxtwX11l3uPma4yxsOYpPzXDnJ+OSrbUeY7cY8e+5TvS25ymXcJ9W4ancWOvgK1m8xG5Oqe0nqSYSys3U9+rMPb8GSBdnwWWNY7Ok68xJ9zAvX7/7M8/cgVr6utuOrsK2tz5eLsez1/gZR61/GU/vXxqDazmRfVH/A7PNc20Gsbcbez7rL3b+HWMfIKO59i3sasfc5sbdj+ZviD5lt1Pwt1nHXPX54XvTvMxhU26s1n+HtO3p/HGu7d+8vvbjHd81/jH2F5i53lr2IMd3odeXMj8c+QdV97fUncVEd98OfIXI5amb5yHmInpfodRf92299WVrfacfxthnZp+erZeVTv4ckNWz/Nq2g4+YTB+FTv0P53dm/UQlOFupxFfc+IdZvX9567EO86olVLmXfHaLOqSte0r9VPW/6OZzuadrzOLxjx7D5L6jz4NFtOA+WLM3twDuvYV9QDY6ehfsyPlVBS1CVTwL+loxvj5H5P42/bjHjYDT+8YFcXC9vldMf/w6/26O/7Cr/Ante2oEj+n3UNDQpuxPflqq/KAsHSZJJmqgWVfIY67PTH2O7CZgkGzVbz4t7mpHacrG8w0ak34gf3bsQ027zuPxYsgy7IoKgTqavlL2C8gYzbIy//z6MrHpFX0VbW3LMlHZQ6Tqc8txhzcfAiUGcNTsL2enqg4NcVbGviMgOZ67aeHXZejTU61G9y6PVn8TX8n9pDS4m34Rr9KKej/iMIC7KDmTsCJxV8yg7vLiVuWoHMwhxmWqg8iQaM8ZYzRvypqgTW1NPu8h0jpq/Tx0M8tROKnkwrrY+RIIKYE7L/D+jAiP190RkGNpK7WBT/GVqp1qjgg1TpuhledUfIpdllP7fGYF4v9o9yDrSO/02nJwKe1neJjMcXpbWAVJ2uE/g7zJo81qWi25Gv/2vtnnn3P87fjRstA9O7RM39Sb1t6bpH3T/saaeqD83buW/Rm1/MsJeXAwOQvxUK9Mj28vFL63t9cLDcgIq72QcXaT1L5TgSB10vmzL8pRlNhNQBy5ruvZvRZX/JqpcqlPbSZJa31bZejSOvjcie3Fh2YLwwbdDkhDIOIlN5refnmWaJ5mr6tY+QZ0g5pnyRHXw2qf2IcjGyBMlal/iw3XqxGDovDvh32fG3/wZRs77IYZa32g/ex8SsThHINEsh7r9MOtHHfAl0NXLZgFC3/yTzhB/rdaN/k3LBQDJ2OWlqZOGGs/tSLYV6O0yxvrLUJ9tlPp34uyNZpt2MkFRO1IPsn3EH15vrcM2XNWPW3lveHz1ck4Wn/un8PaxVZ0ELXrUHLDMspnjXjZGi/vjNpCARZ0T7dTbgvvYoU42csx2o147kW+uyqpyZ3z1coIhc3KlAgxruzInRCIxG351AqPr+Xw4btb1lOG1XzyJTQdP61HcfNk3IrhZxi9RgdGduB2/xXr93W90ABMxXc9jnpqXd824sn0726vH76Ejmi176/gQig5sRPJ4xKmgQh/bYB+32pkJausx0ib7ltGfOL8fJ0Dw2Od0ZDuOKzV1P/MJ4hfZLQIGIXG0+d2qehLGWlmymOcDSv9COcaYeraq9d9iVi1y/xrO1kbtKzDTtCZR5c4yUy8nGPLaTyvOulL1VKljqq7HOzscP/EmM/87VWAky9K1XiUw0/WboEVnh5qvu/6FrnnRv/2Wl6VF5qmjwZBtOAJD9uvfyaaDPsx0NV9NV/v9N+V3svmg+nnfgqFqX3FHxmdmn6B+cz57n+D12/fYh0TUo152UOVVLipUqJATfcwxGWb9kn1FvpVF6o5jWEw34Nu+P+uszvaPgWGjpGmcBDJqmZpsz/aPw/u7UTNvQWiLyQLtAqbMHK2DmPsekMAnCd+eJ03m7kGObmFnskO7vtDfjXDDGPgOSD2/w1/xLYzUk52K28y8SPnn31IBVgxdGhAJyRRNy83D0mWP6gCp7Yrw4PScNmWH9L1D9wOvuLNDnjJwne8Y9thX4KIVL8WMnDZmh1ohAUi//b93TgCvUQFCw1tRFWcOVicn9jguXuVCrvBI84NHb0KjcwItO4MyxD0qTRNcWRJNrpxs1oGF7MD6Xa9OIOTg9cxJJEg9zhWulsVPXGKaPkQ1sdHzIyfJsmPzq+DHKj5b+oxVpw4wwoGSZz3NmJ16swOqvSxfN8O2Ypzb74dP170Z8Vf9zZS3l1mWj/y7qie8LONW/tgKBKJ3uPaylCZjrmUZd738EqfoZa//3habzE1GP78KwKaadate7qZuzZeZOsi8V4tEvb43qwN6EI16TKlH/desHrXMsq5qvv0pEmSc9Vv1O1c+3dQJQ4L/AM69rE6g1bqWDE2sAFROVO1lr5vGSDypA0T13WZ1qvKrmpfrwC5jppn36KuKnaN6nzl5rDmJkC/VHATUwepJebixejnZAXEMf9FXzGWfYV88yUB2RpJ5GLR6RV+tX3MXJslV9bZkhzydcbbvpi+DVmC/aAwS1MlJilnGdnbUJoGwOmxb+45gdcQFBLer/YOcoLeZqjKzfVejyfVbbjvZ/uyLJG3TtPsTQLbvqKam8Rl/U/s3M7jx92j4xt6HyLJR27H6+5xl01nS1LI7WBIOXmxTRyFdBTILZX2r10yd3RFl+IsKamauirrXSJ0wjcRBvBur2VpDuPzAy21o2vb5fnPlVqaVBH+aLm2HXNw8zN6Old3qpAiDnZOf2L8HZc3d1nZsBttNAnP7gl20evu3b12Q0QF9e7V0jIyldI/aR8rvJ/I+p9j7nPZux3JMGoSEuWb/96jVMsJmX5TUF8/0hSuP8wG93auTfrNfD2e/vKSrumLsX6P3Fc62WYxGFdT4oo+9Xvtp4awr61gRe9/v4uxDZFodWbdWIB3x21fbq33+0HxZdqbTKC+1Ao+vPvws4vfg/E6qfov1634LjFPns1V/tspQhT/uOwZfqlrQXr99r32IquNTFawsdDWD07zKtTK8W3UjvhvVVM56QL+8wpmiDh3Dih/shPPg0/jrfitzU3eiHkk+HZmo6XyMcrvVm2M0brzBDnrUa9oNurRuz2tWYHNaMkwSzLizRB5O2/UHcbI+CTLZlFHfQtINuVbdOsDSYzbT5QFRd1h7Vw4mvQzc98bjpqQlw+G3m8p1qcjskBfrpLk5r3LNtLmtnf2q2vGZHZtcLdMn76pcBzrhHV7CXHPFyQQW+mRIghg5eZfxpSmZ6yAhaXzr4BA+KW9as9hMU70irtionau5EmXtKO1sSmyR9agTersePf/2dK15iVt5q2unPhMJ18r7loMod/1nDn2DRjkxbIFcpbP/VueEzF6Wc1U9zrKU9ZnoHPCkeUXCXBUwyXfsZSn3WEQty/iJg611ol6h2nEYqK+uxV7G+uqX/2Mz/ztxccL3dT2ey37jSqf81Fsn1aK3swKmHpkffZXOqic2uTJoBUJypa4pLzIQ08tCmsFIkCfNAfNGhIOzuenWex3oqSBST8+qp8E/E4Pu70hK0Gpm4fy9l3zFr23kCrrvUHuyxtLEwL4ap15OZqCLOVdYrZf85iQo6Hf9fPQL/kkFtnZWp2X6okiXUCdo7Q1idWZB/T2Hbo76PXS/oakRpwWRpMmKvb7Vyw5kJKhZu/p3wDw5uYh18tKZTsvPvPdwXQjrbC0eI2MymYrZHyNe9l+uC1TN9zkd2I510y67DvVqw0XG2KRZmqueWBk2mwSd5m0zMfYVQoIa69xBjj+RwWHnO4OmSvO2NwrVdu5+PeY+RAVT62T4CG6W4GS5nanxKrdIwOZzZ3SnPoCZvoMmo1SCls98xGU4hvn98D79lmZyEvSYl3OvUOeQZnJO3SqwiqVbAqJdZaV4sfAZHK3+zJS0hdxDtA9vv1hghjvLMQQb7GYK0tzBfTVYkXuI9r2DF9wXKzsgMjsk9uLvav0m/iCyYn2Fc/QUvSIk5W5fEfcq95Q5GPFVH1vTUycYZ82VmQuHJE1tX7GRk3pVt9pBycGk8fAea4ctV2BcV4OtHab1itU8SR+I9Mm3XAFyXbFZ9H21sce4IihXq+x5cwnXo9gnRfplZWSa1vzUmQ/dhOfUARV4ycHKXpZ3yzdjkxP5ualo3N1yQBoRbNgHnpjL0moiYI8rmTa5B0e+4yxLuSLvWpayDhtdGcJ+/rPOwaH5MpYrpQ3hK4ZyoDvdfFlGLDPHfAx6dDwuHpKMgtQTvoIevkqrllnFN822P+sE1r4ap04YSo+Gr7jLPSUR9wTYJxTmtbXaOpFoduCXOs2B0FyVtQNBh5R/07zcvd233eN4fd8+vN+mCyLeQrVW1nh8VtQ+oZkqHA8lYeQ4d0rARe4h2vcGVlzVsYDQk7tpppsqhwqEJKtz4RCQkOf3zgApsk+IlyC5k2fPIpklu1mNNM9p7Qq3iwT4W+3tz12PIvuWqzyyDW1Q8OI7ap20vl//qjYEnzSHUe+lSYlzn6lkT4aNaiHYkZMXaapmNUexr+5GX8G9JBk/xJRhIRw3jRu+OtFgXZFulfuYp0zNR0Dtp1s9+ZF7iGQ7NoPtJr9xtQ4TuijAbfcx0iH7cnU8McFa7H2O93b8tdq/WhcUJqv9l50Jimx63LrY5wPNtvvWuJvKq2Nekn1/lNe+wiH7cleLDq/99KVQ85PgNDdX2pzRifHb71CTfktbf/vRxudlAye8L4659xWScbk9Z7h1DPH67be6D5EmbyqQSQxnby0e5VW/xR5MxBT3NRw7gJNslC7w0soxTO4hatMyC2dh9D1AJrPjKRhEQ5KrGZu5p0fqCZ2+ATeONoOdTGeovjW61d7oLn+nCrMiV0jNjtmoLJF3l96pQsQNacK+8VTaiesUoYqQSz7DyKxarLfbZ7a3U4VY7KvqEc3WhFyNDzcDsm8IdG6srNqJkArS7BukY5ZD6g6n48M3FUbW7b5ZsvUbNxW5mtTClSj3Taet3oip3rmn6S73rqc1ajq/MTeK62H19/5G/b3X6oHmy1JfrbNvGo/6W5XImzGjeS9Lm/wdA+1OFVpYlu7lEHHzaUzuesLz77XM5J6glInWGVvk3xNdj51lid7+rE4SIup3xo9cvlr0crA7rdB/k5rmNjVNc5IdMT/692Bvs+FtoVm56VTAa9tpiTSbnSO9TE5fipb2FuEbUNWA7AfmAW/KPsF1s2v1wYPwDZF9AnDPqlH4izoYXbc8H8fXyf93Alvk5lNpYmffpK64boRtd6cKzch6ko4uzPYrGUjTaUfcE7HWlbW+Ieuz8lG1TG9CYys3Fsdc55nSqcJfzLYr69902hG1z3HGb7VcDW/9BPFjTWcfHiLnxb2+3duxvX3Yy8b8ffayaaF+Te3X//hwACd2RPVCGoNsI7o5i1qnO9UJx3Wl1s3GkccT+yZktR00u5HZRCzOcUZEdqqgtzldbkSMK0z9aa6bsJ1pmkH3d8yxDV7HPN0k1N5eo24Wj/V7kNHa26lCTO51qMi+8a00V0cE1u/daqobNa5i7Ue8yl37iqhjZ0wR+5vIfVTMfY4zvtqO9wetrLtsZ656zu4/gH5yr6z+W2L8rWr88N+nyuS7zt8evT92jeOaz1aPG/Ib0AGbmu+tQILpFCf2fj1yHiPqjpiuaxm41pUjah7D+xB7Xlxlzvpw/73WZ3+f6p5HxTnGuOczvE/wXpYt0Od0AdS1+tt3dzKguPbpEb8TF/c+odXfvnoXcx+CyN++07FJ1D7BLtedKtT+S8Q4If2Za1/0+UGU+warY5Zkl1o4hrmb1rmPYW3uVEGRjhR0IHQaf/24Ht/22Z0qxOps4bBr/C+wZxcwdsj7VgcH0iHCvDFwlo7T8UGsThUiO2YQX+76N/xnUNUxHXjPdKQwauY/48YqVa4mK++nOPHaF3jlpR3mfViXBkSegVBXkI1e7iNq5YSIiK48chXwIX8pJrXpPkLqex5H8ft5qCvsnPtDu40E6llHIm+opu7X1sC7r+uRy0laEOQh2OrJvQREdrBgiqhPaV/LlHbo1mBIFC9FaV0AD0U/mJWIrmBWc7mHsirw/N0dv45NVy6rycwcXPX7Gb0rGCKiS2L/9rGjl10IocuiyzJEREREREREPV2XZYiIiIiIiIh6OgZERERERETUZzEgIiIiIiKiPuuKCoik6933oztVkF56Vv0C93g9D0I+v9/1cKv2kq4f2/VwM+l60n4o5yU8FE1P19QT8YR3Ihfp9afHbB+y7bf8YN3WSLerl/PBnV3C3od0yXOB2kGeO+W5rczHoG3R+xrpGtfaB3muk+7e/tq9P26J9Dr1c9zudMfc1aQb3F+0+Xg0/v7VsY9rrR3zukpbl72M53ooaiRzfIz43HXM9NyWLn3fciWQrra7b/9ofv9t/X177QukXNUzyH7uUIfJ/HAb6E1SptyDO6fohxi1TLrkfuCfcZ+8ZtoPK5LuuNXw3VNbfb5QW13mgCgXaau3Y9qz1isz3xR3xPwXkSfPIcmJ6mt+90v6KbzR/cd3nfBJgvNy7wTkIWNB+wnS9vM2PIIkO+iJcfDo/4PxuLjVPCDTdHEpJ4v2NNuyU3SP39pOTXa0zrjO/LjnO/ozcwJlyu2dXex6WhPrINm1vJela/22YX7c9Qxa1NoZr3t5yo69c8fv/9y/m3HVS9a3GT1iO1Ave13FHN8cvNyvWOO36aAsJ+B2Pa75oW4QsR7bchJRjDNzwvsai/WwYnlIMXUGeQDjk5fexXa3H/NaEnWMaOU44zz8OeLZMqZs61EzTD2DeVj5pXaxvfEJfR5jPxOKWibPIVqx6gHnAa/yjKRuv/jRzUZNHIOGXf+GV15SL3mWkRbEvtfVsHnmUGfo0l7mpt2Wh13vtfB0wPxCjBv6Jj4sKsOAgmJMCBzHoUeWweqw+9IfzKqvlOmH2kU90K6FB3BZD/Fqx4NZJWiJ+RBWiwQASXjVefhZ9LB1wFiCuNKoHYLUKw8dKx2MlLyTUQ8Gle+4Hk4o5ATH1f9//8IN5iF1cgIf40FsEeNLfd/HxYLYf0M0OYFOCMZ4WJyrThkn/pD14E/9t6h1c+phNS3X1iYn0Al1/9q8nijWMvsEF0dDHRjDy0G+78u0zqLPejxkzyq3lrHzoNVWHkLr/B1mfiOXZS6aIh42JzyWsf13y7SkzmbrMVLE8ogaX5aB/QA7u37v8Vv7e+1tzlo/1rpq6YAUOX6YlJvtUB7I12z7cz1YNPphffrhnfbvJqp+/ZsyD/2Lehis57bXRuPv/zmuOxFCINs8hNV+CJ6zrxCuh24uH6WGhyMdB1EeykZgmP2QPfc+JGr/0t4Hs9r7EPNgWvv3iMN+JOp17nrAoXtZOg9+tLdPq1hvj0XmIcaxJq+nJw9vtR9cbEiAOjaEBv94a9txtpvw9h3rIZFe+7Q2/96ixg//lt2/K1kGMr+TvJeNsJelx/64TWJuC+qtu9x9zHCXOw9CFe4HH0Y+mPVTvS25yl0PTo14wKOqe0nqSYSys3U9+rMPb4l4YKNmT9eZl+hjXrh+92eevwfR3gezxlj2el+MqPUv46ljW2NQbWeyn3Z+467tINY2I9u+ax+jxdq3ROybI7n3o+5pxNq/em3HEftL87c0f9BqeF707zMYVNurNZ8tH6vknXu7Dz+U1JvH8SfGvkJzl0fsX2NMN3pdOfPjsU9QdV97/UlcnDje9Rkil6Nmlo/zINfodRf92299WVrfiXV8bivZp+erZeVTvwd5PGjUA4xPHIRP/Q7ld2f/RiMetOreJ8T67ctbj32IVz2xyvWDWYeos+SKl/RvNfzQWPc07Xkc3rFjWJsfzBr10FTnAazyYNZJwN+S8e0xMv+n8dct9oNVIx+qGn4Aq7v8C+x5aQeO6PexHswqZXfi21L1F2XhIEkySRPVokoeY312+mNsNwGTZKNm63lxTzNSl11wlwezTsvNw9Jlj+r3MZUs08FQl9FXyl5BeYMZNsbffx9GVr2ir6KtLTlmSjuodB1Oee6w5mPgxCDOys5CdizbN0N2uvETl+irZfoqet4UxAd3un7UhtTrOhG0yY47dbvsXAYh8VGvq7vzEZ8xCHGZ8t5cxdGvnWpH9X0rA1V5Eo0ZY6z3Mg84ia/lfRtd/NI++bGpg0GeHw1vWb+er4NnkDD2bv0+bupNKpivjgiGbM3riaJ2sCn+MrVTrYn4viwH31V/MH9XeKeoy+UAHFFurjDqsvXqhC+3DVfEba5luehm9Nv/aoydrccylnVoH4RkeVvvPMh0/mZtK3pZqh1+8mBcLR/JMhj9CerkCr2ahnXw8R6/f+ESxB9eb82P51XVM2iqNG/bJMb4i2YiMVgWY3m4lpls93PVztle9vXWGHqb2P9763cjWVN1sOx3vdqBqu8OelRO1s3yjPoNXFhm//0dlYRAxklsMr/99CzTPMlcVbf2CeoEMc+UJ6qD1z61D0E2Rp4oUfsSH65TJwZD590J/z4z/ubPMHLeDzHU+kb72fuQiN/HCCSq7V6WQd1+IH6qZNzUspGgVy/LBQh98086O/e12q9b2+cas09JUycNNc32HTZr2ct2HOMHmaE+2yj178TZG83+wckERe1IPbRt+wuLW3lveHz1sn/L/Z/7J0Cd8Fj1qJOgRY+aA5ZZNur3EF42Rov74zaQgEWdE+3U24L72KFONnLMdqNeO5Fvrsqqcmd89XKCIXNypQIMa7syJ0QiMRt+dQKj6/l8OG7W9ZThtV88iU0HT+tR3HzZNyK4WcYvUYHRnbgdv8V6/d1vdAATMV3PY56al3fNuLJ9O9urx++hI5ote9kPqBNodwBjSx6POBVU6H0CbsI1en/czkyQx77Fkxo/SfajZjtzAgQpN781qadx9L36+NCR7VgubOrxn/kE8YvsFgTqWD3a/G5VPQljrSxZ7GOVTFdO6k09W9X6bzGrJkHYTOd3Es7WRu0rMNNk8lW5s8zUy9m/RtYTbr2iOOtK1VM1Qv1dUuidHY6feJOZfzkWyrJ0rVcJzHT9JmjR2aHm665/oWte9G+/5WVpkXnqaDBkG47AkP36d7LpoA8zXc1X09V+/035nWw+qH7et2Co2lfckfGZ2Seo35zP3id4/fY99iER9aiXHVR5lYsKFSrkRB9zTIZZv2RfkW9lkbrjGBbTDfi27886q7P9Y2DYKGkaJ4GMWqYm27P94/D+btTMWxDaYrJAu4ApM0frIOa+ByTwScK350mTuXuQo1vYmezQri/0dyPcMAa+A1LP7/BXfAsj9WSn4jYzL1L++bdUgBVDlwVENgmGfnTvQp0t8rYQN6gwtb78TZMdEkV4cHpOm7JD+t6h+4FX2vSU+gxc5zuGPfYVuGjFSzEjp3Me4hW3MledQJuTPn2wsHYgctVEfuj6xC5zsApG0tTOyG5W0HIb7KY1i80ORK6auHcsv1cn+jNNHWPUjscaX8hVKKs8fBVJz88zJ5Eg5c4VrpbIDtOqR3bizQI43RQwfHIs81kXvFWP3/zqsalHBTTN6olgdurNDqiTcc1oqODrdTNss8ubrzwrkJTpRl+pisFelrrJX3hZxl0vv6wpiNVkLuYydtFNHEufaWUZK3L1Ts1jXKmsYz/6yYF57AicVesr5tX+ZuNPRj//URMoRVPL0yyD+MORJ8QJc+35d29/3uPr9XhbanhZyzJLibH9qe3bCXyaSbe2BVnH6uAW709Xf88YJFTFCrI6T/U+c/JYcxIhX6o5CKiD1ZO/0PdehLMD4hj+oq+Yyz7DvniSgeyMJKTnm/Gjr9avuQuT5Kp6W7JDntTv22zfTV8Gw8tGnZyk6GWsfj8mO2rrP1a2TzWeLHOPCxDiav8g7wsRzrKvRpPZ/tqnpe0vtqbdnwBykSjixM8K+Bvt/YNsX9+YCwR62ajtTv19zrLpLGlq2R0sCQcvtqmjkK4CmYWyvtVrps7uiDL8RQU1M1dF3WukTphG4iDejdVsrSFcfuDlNjRt+3y/uXIr00qCP02XtkMubh5mb8fKbnVShMHOyU/s34Oy5m5rOzaD7SaBeb3Hhbb6Azin1+1eXAzaF+/aqcV9Swyle9CoThFToo6xcoEgPsPed9nHh/Zux3LsGRTej9oZbkPvv+WNXBhTKzDO81hlXUyyLnaql5P98pKu6rKXpUv0vsLZNovRqIIaX/SFVH1RNEY9wllX1gWplo/ZirMPkWl1ZN1agXTEb19tr9ZvP9ay7EynUV5qBR5fffhZxO/B+Z1U/Rbr1/0WGHejev9ncwGkCn/cdwy+VLWgvX77XvsQVcenKlhZ6GoGp3mVa2V4t+pGfDeqqZxki/QxyZUp6tAxrPjBTjgPPo2/7rcyN3Un6pHkswIiHz5Gud3qzTEaN95gBz3qNe0GXVq35zUrsDktGSYJZtxZIg+n7fqDOFmfBJlsyqhvIemGXKtuHWDpMZvp8oBI2Nmignt/Ykrc5D6ieUir3tLhbNHau3Iw6WXgvjceNyUtGQ6/3VSuS7myQ61xrspKwORHQlvuv2jGnQV5Qu34zRV9dcLs8x8wV4p24qw1snUiLYGQlEuzPNdBInxy774XxFX/oTFRJy/q5NiVHRJSRxL+XY9/1m9OdvT5m7uem8P1mAyaNV1rXuJW3uraqatA41p535b7HaLIFUC1LkI6wxJ5NSocKKmX8zd5LEslfuJgNOryBQjVjsNAuVpmL2Ndv2sZG7IspJmXu7lZ7GWsDlTmqp4+6HwTVEGU9UlsscZXB0jPgC+cyTqNe53pykHO+lut7S98RTL2+JoEwHXuwEUtsx/Z9YSXmRVExhY/caZ1RdUE441yEn+ZyBV036H2ZI2liYF9NU69nMxAF3OusFovWe8SFPS7fj76Bf+kfmt2Vqdl/a7vyD6mLVra/jyYi0V6fxDxe+h+Q1M9WjMIabJir2/1sgMZCWrWrv4dME9OLmKdvHSm0wjWmLe9gZ3l7gIt7Vtis/frHyNe9r2uC1r2RUrrJRcZO7AdS6BuZ3bk1epFRi/SLM1VT6wMm02CTvO2mRj7CmHt719V+3A5/rR8AfbStbclQg8Tqu3c/XrMfYgKptbJ8BHcLMHJcjtT41VukYDN587oTn0AM30HTUapBK0fTS/DMczvh/fptzSTk6DHvJx7hTqHNJNz6laBVSzdEhCJXWWlKHr112bIJsHQY8g8sQW7CjeZMpvcQ7QPb79YYIY7yzEEG+xmCtLcwX01WJF7iPa9gxfc5/sdEJEdaolc5XBdEW/x6m0b6VS8/xP83T5ZtZvPyFUjXWAdTBoP77HK5QqM62qw+wS5Tc2TorJD1tW1M2jc/b4euvDWgdav5NgnRfplpeub1vzUmQ8daJySwE4OVnvxd/VbSfyB1SQvzC6PsfLsK5VyJcx1oLMybmYaMQ487mUpJ56NzjqVv/FseGcfYxnrQLEo9j0vzZexXE37Jnz1S5bpVdY8Xzh0FAkqqIuLSAh4jS9X9u1mDdI8orUrjJFk+2s9MLED4OgMncVZZu99Y13BHz1Fr/u4lT92snOSFWh0rjxKfSPUdq+2l40f42xGe5o0isfx+r59eL9NF0S8hWqttNb4rKh9QjNVOB5Kwshx7pSAi9xDtO8NrLgqMoNzydzNXN1UOVQgJFmdC4egthV/i/sQ2Z7ipVlnJ8+e5RK2v40rdTMYK+Pjrkdx/R46ouDFd9Q6aX2//lVtCD5pDqPeS5MS5z5TyZ4MG9VCsCMnL9JUzWqOYl/djb6Ce0kyfogpw0I4brKvX51osK5It8p9zFOm5iOAk62f/Mg9RLIdm8F2k4yMWocdu8DXush9y72tZ/4dcqFHHU9MsOauJ8x7O5bm4NYFBbXfWmRngqxMV0TzzRZ5HauitvvWlNbgYrJpcqgv/Jn7o7z2FQ4JDsOtEOzsmb7A11nU/CRkuC7qtTmjE+O3384m/W5t/e1HG5+XDZzwvjjm3ldIxuX2nOHWMcTrt9/qPkSavKlAJjGcvbV4lFf9FnswEVPc13DsAE6yUbrASyvHMLmHqE3LLJyF0fcAmcyOp2AQDUmuZmzmnh6pJ3T6BtxodyDXyXSG6lujW+2NrvVt8xKdCoV0IBSrc4UBBYuRKTux9Hmd09NcFKs3DrlpLAmBBXaErQ5cWw7Cp1OFExEsOehqptdJTEaiTdkhdUJ7OpjrZAvCzdFMcyXZEZssid2bV2x286bN1v0m9tUpfYJpmgOMPelkR5rWlOGiuZdJNxOIeS9ImDujoZs4OcGDHCwis0N6Z1saROKjptexR6W5mJqfb6LrCcVoDtc2TWtedTXRCi8bXe40HTTldlMJaQKnhhvt5lyevJblSivbpT9bgvgKcz+RvYylftcy1vfYqO3bvmfMmR8PFx7+A2A3uZB23nJTvHyw8QmEgmb+1WdOZifm+GrZbzyAfro8F01bVTCqx1YH79+YcdVL35f1lLV9uteJbH9WgOY9vj75kO1FBTxhapmZ+XOWmXxsz7uu408I2ctetvvDI032z2qrb2XQ1MmKtBm3m4y0qWfBX+KgxHApaejo5ZMDFcec5gNy82xr+4QDL5cgNPY+q7mBvC6l6/62ek8tM8ng6WUmL5MtlZOijBGIk4BSgiO1zbV4VVatE50JNOur1V7m1P7Muv8x0WzLZnyn3L4vUsq9tj9vEVla2Y71PkHV86OdsX8PHVC0uwLqkAj/SFPgZfdL2BmymrUsHLIfOz835erk4025p8Be304TuVyrq2z9kntTf2eat7mPM/JqJXMk9y6p8eQGal+2bFeuJnjD8q06FtyITzeH70WSK8TQ46rPzNVjz2PeuhLgu2Ze5J6nbsloykm33EcS3v9FtiyI5jrmmWOWc99LrPKIfUtZeN/ixWyv1rzIPSrmPhlXPdZnkjWJ2o73h+8hcpp4qv1W3OHw9n1hWXv+Vo9jVcR0rVfLGVPX/lI6tJD7dITsX2PtK1zHNmu/a98TGz3dVjJHMX/75jP7fONRuRfUdS+S02RR6rfGt377rnui9f7e2m4ifvsdzrZZv/3Tbfnta+Z3o34nM1ES7twkFrWv2FR1o2kCZ92X7mR8Yv32vfYh5rdvlcm9R+Y37lXucqBU7QPsiza7j6Da3ldknWx2H2E0fQyz9x/y6uAx7EjVF7h+mjRFuwWhj2Pc0xPhMP5zV73VNG6eD4ece4CC2PfOx0jU9Vivlrvjlg4Y1HgSgJmmcP/YUjB1eAf21I/BbFP3fQ/MMh9E6rJe5qSZXPb4f2i5l7nOJJkduY9o+lK0oU86IrqCyFXAh/ylmNSm+wip73kcxe/noa6wc+4P7TbSK1XWkcgbqqn7SRPz6B7uqLkeuZykBUEegq32mCadIdwJbHH3zkh9SZdliCQz1G3BkCheitK6AB6KfjArEV3BrOZyD2VV4Pm7O3z7N13BrCYzc3DV72f0rmCIiC6J/dvHjl52IYQuiy59DhEREREREVFP1uX3EBEREREREfVUDIiIiIiIiKjPYkBERERERER9FgMiIiIiIiLqsy5rpwqJ3xqF/21CHuKu7odzwS/x+btvmk86z7Dv3qH/t+u+euAgDLttHs7XfYX/e/87uoyIiIiIiPqmy5ohavjbEVT+7t90MNQbjZvxCf7HveY1g13+EhERERH1Nj2i2+3oLI743yZOR3J6ln5fX12hszlSFu9LQdzV/RGfdK2TVbrGl4obbpuDq+MH6PHF6b99ikE3pOvsk63x9Cl8ufc/cf3kf0TT1xdUHT79efDQ+zj51/+yRpIHvD6chYpWH+Lldj9uv/O/I+XQTSg+YoqIiIiIiKjH65H3EA3+9n/DgJShqNr+Cr58/20MSkvXzevEAJ9fBUh/1eXxyUN0eeot09BYfxKf/K8XdZAkr6/e/08n+yQv+ezoH36Dr/9+VtfTPyERn5e8qYOt5PRv66Z0l6YedXXmLRERERER9Qo9MiCKTxqsM0AZs+/D9ZNm4Or4a9B/UJL+TLI89dWH9ftLcabmKP4eqjVDLsVLMSOnrdmhtZivm8z9d2QeW48/MiAiIiIiIupVemRA1D8x2cnq2C+nSVsMZ748ioH+63HT/7EU1wxORejTj8wnXW0Fil+9Cf+ner2JJfjpxPtNORERERER9QY9MiCSAEcCG7uZXEuujo/XTd7kPiAJnKSZnHTW4Hb1NQltbxIn9xDtewcvzDfDRERERER0xbqsAZF0kiBZHcnu2BkeuX9IskF/P1mrm8tJWcYP7tcdJ8TydWOjvqfIP3aSHldeI/7pR04AJNmifgmDdPM7Xa6Co84hHSmEe5lbeO1/4l/3v2w+IyIiIiKi3qBH9DJ3Kewe5k5WHNCBlGSVrrvlVhz/85+aZYqIiIiIiIjcen1AJKTbbskw2exuuomIiIiIiFpyRQREREREREREHdEjO1UgIiIiIiLqDgyIiIiIiIioz2JAREREREREfdblv4do6gNYkT9cv60ueRKv7dZvvcs7yfj7f4GbK9pabwZuX34nsOVf8McqU9SJhs77ORZmJ+n37r/Vq7x3eRyv78vGwZy7sNaUxDT/RfzxfuDV6UtRZIqIiIiIiLpaz8gQfV6CtatjnPBHl0uQtOoX4df9ueaD3u0rFWjJ37nzc1NgeJW3XwFeeGcf3n/jcTPcfVa8MQfY4Q6GzLzsk5frAbjFS3F7WQoeugzzSERERER9V5dmiKbdlodd75WaIQ8S5GQdwdqXy0yBEas8okyyNvfBv+9JvJv6c9yBzxDKzka6jCeBlB4nF/esyrfKcBrlm/8Ff8QPsWRBNny6zGg4iE3rfouvYo2fFs5UOaT+0lRVz2DsWf0SDkhZhqp3HvDmuj8je3k+UOVDQGd3jmGnPY4r6xWexzCvrFWs8hVv7MMcbMOku35pSlow/0W8PrUGwaxs1Ew3wYkqe/t+oKIugID+g6uxTbI4XuUr38D7s6wlo5fNc9PxYLFkf/IQ1O+lPCobtPJ1vP+dQxHzKPOdF/wVZiwtsj7PrcPzTlZIgqWfAC/b9RERERERda0uyxBd6/NhWm4eli57VL/var7swfjL6iexdnUJqoeNwnhVNv5+FZiUSJl6lYQQmPdDDK36LdabrIs0Q9Of6WDIY/zdL6nhV1DeIAGS+UwCGVXPns+H4+apevIYOu5GhPZZ9QDDERiyX4+76aAPM3UmSwVbOSexSb6vXjuRj3vMd7tawVQ/grt/ib0VKcheaQpFUgD+j3IwKScH26rTw5/FKl9zlx7Wrx11CPxAMjm/xPZyIGtqgf4aVmYjpXybkw1aMSYd1R+5A7bHkZ1ejVIJhlTw8/ytN6pp+THC+lApwoNldt1ERERERF2vy5vMSTD0o3sX6mxRpxiWb5rM3YeRVa84WZPQwRIrC4MyvKYzMrm4edgx/MXOquwuQTkGY6gZbK694wMHKo7Bl5qh3mUgOyMU/q5kUEqt7M9XH36GkC8VQ6eOQnpiNhaa5n4zh+mPO2ztXSowaUt2SAUek/1B7C1W4cbuCqR8xxVsnC7H9jXWW6nvbvM+drlkf0xTNydTZNUJvzW84jspqNht3wFUgOtTjuKgXaebZJv2/Qypf/oVyk+nIM1uNic+DeJ0Spr6NhERERFR1+uWe4jsbFHBvT8xJZfA3Fckr/VbuqCHg/bYfQShjFswVL38VXZAFkOo1socueZdXs3umeoK86cgKz2AhySQeTiApPRsrDAftYfcC5RS/iuTIao2pUrxHlSkSJ2PIxulUU3dooIdLR1zcoN4XtVjBVp1qIluHldXw44ViIiIiKhbdFunCrvKSlH06q/NUHc4hmBDuEkbpuYjgJOmSRvw1YnTJrtja2n8KhwPJcGfpgdcyvCX0I34bt5gBD+MHZyNz8sGThwDak4iZJrydQa5F6ctnSQUTM1C3Q7T1E29IprGtVPdV1aYsuI74QyRNHPTTfHeUH9nRPO4InxZlwj/SDOo/RIHVSxVXWbuGVo5Wy3jII7qz4yRfiDoCriIiIiIiLpQlwdEp0IhHQi12rlCp6vCH9eVAPmmR7p8YKe5V0hIUzZk32d9tvyHGNrK+NI8Lt3+zNW73YGKENJ9J3EwIh5KQmCBNe5MlFiZrKrf4k25n0i+r18/x+3ueKxLFGByVl1Es7W1H1Uj3d1sro3092ZZTeayg+U4bcqFboqnYqTo5nFrP24+rbV3bQNMPe/PugrborrZjmx2R0RERETUtbqslzlpJpc9/h86t5e5HkieFfTd2n9xNX/r+DOL2tPLXI+y8g28PXSb1XNcBOk17mfwl7nuT2pJjF7piIiIiIi6UpdliCQz1OaskOkooVmva17lPYEEbGreFg7Zf8mBigRVOpsU1dGCV3mPIV10S6YnN4hXmgVDoggPTpeM0But37ckD2aVLrgZDBERERFRN+rS5xARERERERH1ZN3WqQIREREREVFPw4CIiIiIiIj6LAZERERERETUZ3VxQLQQmc9uR2a+Gexy1vSmrV6FAaakJb5latxlC82QS34hpql6xhWEu9fucoueQmrRcsTlLce12zdgYJ4p7yxSf2Gzp6R2vrZMR/+NT6H/VfMxaPtmDFpkyomIiIiIutkVliHahMpHZmPXqtU4b0o6pGQZdql6Piy6DF1+l9bgIoK4qDvoswKGVPvVHQFNt6pGU/0ZNFWaQSIiIiKibtYlvcwNKCjGhECiGQJqdsxGZYl6I5mXWeZppNVbsKtwk34rmZqx6fptRDmyVmHc4gCS9UAVDj2yDCFdNgS15dchU0/DXW7GderIRdrqxzDwSDkSA9Zn9eVP48Py21z1GvXl+EAFUnDNuzPfmmSf5iFNv29A5Yb5qKmQshk4V35czYv8XXa5Hkk/n+f9WcC2nLuw1hR5ksxK3knUFdRg4PYxaJz9BC5IQFSUhnMF69Ckg6NcND2zGOdUsBS3cgNSJg6yvlu1E7XLivXb5uXVGFi0BIkRf+wZNJh6YlLzcu31J3Fx4ngkyLCr/v6Fm+Ezq7Bx/3qcWrNXvZscOQ1nfHe5TPOnappqc5MM0aODcXbO79HvN/cCG1uYFyIiIiKiLtT5GSIV9EwIQAUGs7HrkS2oMcU6uFHBwSHJ4Eh5+jyrKZ0af2y6BBJSrl52MCQBiApaoAIYXS5Bj/lEHn6a6X9blT2NyvoMjJCmbRWr8aEa71C1GcUlLTAER6WOHVVIDtwBn3tcCZ7kM5NVOl80Xw275luTwEoFQ2bcD8qh5q0QPv1ZIjJHncAHuj71/nsxmuC1xcYnUKsDn2Kc0cFQLCZzpAKKpNGfoG72AtTOXo8G/0yr2VnM8r0qoFLDW49agYr+rPUAJH7iTSr4knF34mzGGPSXQhUo+WDXsVMFTPfqpn39C5cg/vB6q1ymY8St/DHiSmVc9XrmE8QvetTa4ErX4ZT8jd/IvDEYIiIiIqLLp9MDogFDrwPqD+OEnSWxDRuCZBXIjJV7fEymJXGoCmQ+P4F6CSoWR93Pkz9OjVOFozGbrakA6j8kcCpDzarWm7bVl79pBVN6WtchIUsXt13WbUhNBmo+soK18+WHI+qp+ZNHE701d2FSW7JDLUkejxTdZE6yQ1agFDf1JuDwHhU8CRVUlB5Fv+sne5Z3SFWZCVSkWZsf/STwGTsCZw9ZmSKowO3cfjUvmZPRz38UZ3WmyG0yrslKRMJc09zv0fGIN58QEREREfUU3XYPkRUoletMipXxMYGMydZ8UN4ApM9TwZKdeSGt/oDO+ISqBqngw5T1KOmIi2iO5ybN5EyGSF46A0ZERERE1HN0ekB0/qvjQPIQq5c3neWx6KxKcgA3ePQ4p5uq7ahS70zmRWdzTHO4TuL7XgDJ0dmrIcNb75Gu4j3U1gNp37EyWAMCo5vXE4vcQ7TvDawwg5fiwlsH0C9vuV5hTV8GET96ill5kzEwbwQufrnXs1yrPIlGf9olrfCvg2eQMNbu2GE+Bk5U81IpGaQRiNc9xc3HoLkj9KeSoboYTED81A5mqIiIiIiIukGnB0QoeVPf16Obxt0K1KhAQqtYjYryBqTNkiZz8ipGmgQ+potr/ZqVgfryDVanBJI50vf8PBY5vhdTj+6cQWeawt1923WMTa/CIVcPdKH/KNdB2gSp33TVrbviNk36rHmVjFUZal5T45p69T1Sr11iT3btVboOZ4PjkbRSBRgbn0Dd4ZtMUzrr/p0zG9U4XuWidA8aYTe/61i33k1rFiOEmVYTuO0zga1y/89enNuogjXdNC4XTVsPqOlYLjz8B1ycuMSMr15XXC95RERERNTbdUkvcz2H1ctc6pGnL08X2kRERERE1KN1foaIiIiIiIiol7jCM0RERERERETemCEiIiIiIqI+iwERERERERH1WQyIiIiIiIioz2JAREREREREfVYXBUTS3bX9DJ9YFiLT9Zyg9pmMgUWbMWgR0L+wa55tI/VK/RHyluPa7U+hvzx8dHuMz4mIiIiIqNfpooCoDDWrZmPXI8sQMiVd4evgGTQGq81Qd6lGU/0ZNFWaQSIiIiIi6rW6ICCysj/T5LV6FQaYUjGgoNgqf3Ye0kyZpQAvvLMPb79YYIY7QDI4RcsxULJG2+Ul2RxhZXSssg0YmKcLlRjlOgu0Gb4MIGGu+UzVyXaFRERERERXpi4419+Eykdm44PyBjNs5BdiQgCo3CCZoy2oMcXttxfnChbgzEagac1inFqz15QryeMRd2gBamcvQKhqBOJ1s7qZwFarrHZrEImLrAAnZnnpOpzS3wXO2p8VrEOT1K0/ewIX9PQX41ypFBIRERERUW/WbcmPAUOvA+oP40SFKYhQhAen52DG0iIz3EH1B3BOBUriwjIJmuYjPuMoGk0ZNv4eDRiMq+FVTkREREREfQlbgxERERERUZ/VbQHR+a+OA8lDrHuK8sd1/j1EMUkHCFbTOW3R95GIk/jas9winTX0u36yGSIiIiIioitV5wdEWasw7tntmBBIVAFQABPU+3EFuUDJm6isz8BY6VThVqCm3ozfpeR+n52A3UHCXCCk7wnyKrc07f4EmLiEnSoQEREREV3hrkq/ceQ35j0REREREVGfwuQHERERERH1WQyIiIiIiIioz2JAREREREREfRYDIiIiIiIi6rMYEBERERERUZ915QdEectx7fan0B/zMWj7Zgyynz3UaSZjYNEGDMwzg7ZFT1ldduvpx/iciIiIiIguuz6UIZKHsZ5BU6U1FLdyg/WcIf3qwoCltAYXEcTFUjNMREREREQ9Ruc/hyi/ENNuPYHKEwFkpqvh+nJ8sGo1zmMhMp+dhzRrLBWfbMGuwkqkrV6MVCQiObkBNdVAWnoianbMRmUJMKCg2HrAq1Jf/jQ+LCrT74ECvPDOz5BV8SvMWFpkyjxIhubRwTg7+/foV3QvsHExzqngRAKigV8uxpmN1vsUfxlqlxWrL0gmaSYS9JfPoOEZa/yY5ZlPIXXuCF3iqNpp1SMZoryTqCuowcDtY9A4+wlcMKMQEREREVHP0DUZouQAUoNPY9cjW1Cj3t+QL4WbUPnIbFWmXhvKUZ8+A2lZUq4CniNP41B1ogqW3sYH5Q1IHJqrA6sJow7jAzM+AovN+O1Uug6ndDCyF+cK7OCmucagisaU/oUzga0LUDtbvbYGkbhouV5IMcs3PqGG16OhXgIk85kOqhT5rGAdmlCMMwyGiIiIiIh6pC5qMleFo042J8y3bDumPateiwNIVoHQwGFWecNX1rj1Qas9W7I/EwOGXqcDqwkxxgeK8OD0nNazQ61ImGs1mZPs0Kk1e1XJfMRnHEXjRutzbPw9GjAYV3uWExERERFRb9Z99xDlF2JsegMqN0iWaAtqTLGXAf5Eq1mdnVVSL2lG15nOSsbnmQNo9Kf1pZupiIiIiIjI6OY44DjOVsi9QTPC9xJ5CH1UBTjN6qLJPUT78PaLBWb4EpSuw9ngeAzUvc9JxwsjEG/3RLfo+0jESXztWS724mJwEOIy9QAREREREfUi3RcQlXyIGmRg7LPbMcF/GJX1ptxLyTJ9X1HmYtPM7tlC+MxHne3CWwfQb650zS33Ge0ETFO61LkqMNP3AXmVm+8fOuo0v0stnG9KiYiIiIiop+v8XuaIiIiIiIh6Cd46Q0REREREfRYDIiIiIiIi6rMYEBERERERUZ/FgIiIiIiIiPosBkRERERERNRnMSAiIiIiIqI+iwFRT7HoKaQWLUdc3nJcu30DBuaZ8s4i9V9pz0hatCZqmV1lPiAiIiIiaps+GhAtRKY87HX1KgyQwaxVGNeFD35tl9IaXEQQF0tlYD4GycNe7Vd3BTQSPF2O6XaUvcze4yO1iIiIiKh9Ov/BrPmFmHbrCVSeCCAzXQqqcOiRZQjpIGQGzpUfR2YgQ5U3oHLDfNRUAL5l2zFWjwvUlz+ND4vKrAEJVBYHkKwH7HqAAQXFmBBI1KXu8d31oHoLdhVuUm9kuvOQZpWiZsdsVJaEy/Tw5zKdITiq6j/vqtuZR6jP7xkNJCciub5KDWcgLdn9d9n1h+dRW/kG3p8FbMu5C2tNkScJQvJOoq6gBgO3j0Hj7CdwQQKiojScK1iHJh0c5aLpmcU4p4KluJUbkDJxkPXdqp2oXVas3zYvr8bAoiVItBaicQYNpp6YZF7GfmzqnKy/H1e6AGcql+PaRUBjcDwSZRXiKEL2fG6fiQQpiqrbPT+N+9fj1Jq96p1VpzVP7vHd5cDZrT/GmY2yeXrULxmivFB4mc1R88KYiIiIiIjaoWsyRMkBpAafxq5HnkZlfQZGFOSaDxKROeoEPnhkNg5Vq/ffW6iDm7HpEkjMxq4N5UDgMWTmy7gq0FDBEFTAs0s+swMNFXBNGHVY12GNvxhpWVb52HQJYGRc9dLBkARJKlipL7fGV6/KEl2sNKCmugFpt5oskXG+aL6ZXngeNXWSXrthC2qSVSTwJ/m7rkNCVi7SVs8DVFBljZ/x/2/v/IOrqq49/gUhFQh4gYuDFIYYlDAqMX0TQRw0pqjzHipK7YwiIhboDAUt1h//oMhQKv/0acUqOlOk/iiiM30iqOkbNcYoA4KZDgR0CD9ieFBgzA1ck4g0UHxr7R/n1z33Z24oMeszc5J79zl3n3P2WXvtvfZaex+MX2SOz5bVj6NZGT7r8K0yMsIwnqPKhzFw3F603DoLzbeuQnt0KgaQoRKevoUMKvq+4YA2kNS+FMZQOgaVofdOzmMW4o2jUUDn7btyKrBBpzVviKFw3sNasMhgGepczyxjDLGRNFsZWOr4p/dSHvr43kvuRcHuVTqdNm0MBfL3XvvqJf4yE2NIEARBEARByJIuCplrxAHltanFiWPUh46O0cnE4U+W4ST9j69ko2U/howtBJp2aGOn4WM0t5LZNJwMqClXYoSTj8v5wy9UBtdVHPKmvEeF6DeSdhw6hlY2uOZTuscoORlrd47XhpbLd7t2o3XQOAzh31tU+BzlQZvyNg0ZZQymr3Gigf+347tD/J/POwb9yFAacUvY8cTyO3F1Jt6hVJABMlSFrrF3SBtKvSdfCuzeTIYAQwZPzQH0uWhS0vScKJ5qQuYWKCPl29UmvXU7vjOfTy1io2UGCooPoMPuX/0eldBgnEcf+14xGidq2GDxMgk/GjcA/W8z4XgPlaHA7DmzaR8wYUFCiN6pnQfU8RcsyfFeBEEQBEEQBCEJ3W4O0flRNqDWO14c3pTXp2EZdtDnz+vIACqaTgaKnhOkPT7s0TGGi9eDc2gZDrAX6LpxJqECI+4mI8vkr/JKxbBRZBZ5vFK8LdUGX94gA4Q9LPHGAejt2pVdj+NNcj07+YPD3qzHhzbl5SHIePqGv++8XBlLjgHE3jNKb8O9Kl15wwRBEARBEAQhD3StQVSyFKOLgMO7dPhaIrU4tocNmCv1ggYl12PYoHY019Uaj4833E4T39VIx9+ow+RCUAbQu3QMOKRNp/F5Di/lkDb66PXgEPH/rUMrzw0y35nW2H76Owc/duYSJaGZPVqesLogPIdo65tYbL52hlNvb0efSh1aduZIDAXjrjEPbxL6VY7G6SNbkqYr9h9HR3REFzzwJpxp1aFzink3k5F4HP+ij6d2HUB/c80uW3A6NgAFk1N4e9gA2nAABVE7IUxzZvmv0LLt29y9XoIgCIIgCIIQIP/9Y0UxxpuQNp4D5M7bSeTk2hfVPCP3+BfVQgvK40OGzaDyR1Q42rV/WKeNoOpFem4Ph8apdLM6HC/moL7TdksxWk0+vNCCTVdzjF4PeHBMmJ5GG2j6nLwABBtWqSBD63UyqJRHSp/jyoABlzdqnsKJWBkGsteEDIaW3ZeaUDpPSFuydKZmMzpgw+/yuaw3z1GqAmwI3G1kZFqPz+oliNM163O6Hp9Ti6pwmkPjTLoNkeu95AU3jfN5UC8U0XelSaON5yS15d1jJQiCIAiCIPRUumaVuVvgX21NEARBEARBEAThHKSLPESCIAiCIAiCIAjnPvn3EAmCIAiCIAiCIHQTxEMkCIIgCIIgCEKPRQwiQRAEQRAEQRB6LGIQCYIgCIIgCILQYxGDKC/MxHMfbsVnWz/Ec3oFacXw6Y9i8dJHcVOxSQjA+xdMT7IzA3ovedFZsrpTzPuds6y18zLUHHCXx87nst7pmIR+a+15f4e+JlXoSrjM+Rn3Mt/PEeYtN3LQOTkOZwYGbDybcn12yI8OobLhcg/mw88jLG+jbwbMy0B+HN10DspbF8F6NG/yO/mXWDy3i14FEUK6Ns9PMW56OOxYTv8tFj/8cww3KWeLTMuej0v6gnBHvs13xifHJi0IH5OP9rxbw7rk7LXjSv9l3F+x7Z756iG7fJKTH31cgbuXUv3ponpfNve3uHuy+XIOkKzMcilLWVQhH/ALWK+ox9V3PmkSMoMbj5/hf7Bqfbr3HYXDD3xotBbNi/T7ehhW1BHTwHRsW4Vv+J09rGhvG60TDSc2zDLvKOJKPhtYPR/f1ahdSVHnmzDAfGO+RfvT5neVD+MCagDa7DuIUsJKbyr6q88HEL/1cZxSn5PjPbd77QTf2/gvfGWQV/i+HioDbFn6rp1Jff0pyywUfh4LUGjeFOx7Tn+h9Av4s5tHMH/nmRN9n3kVkTG9/OWVBK/cMO5vwp6VlZlf0TV41Ueyssks/cSGe+mcJj+vzDZWZfB8uXzoml7ylm2wLE3+5pkWqFTv8/Aez+ne+6Nr3ViBM39I9ey6Hwk6xFc2TGb1MxQ2iMZ/mYe6mUzeQghcfyayf67BdbF/zK3HnYINopI9WPFSrUk4l2DD5w5g/e/xfm5NYN4JLXtf+6n1xenbX0PBzmxly8pxEh3S1W1Zt4DbhMvRkavO6VLSPL88kKCPz0HYILqs4Qm8vskkhOiYsrnL6Jil7jFdSLIyy6UsszaIrr2+Ep9+nFoazp+5DleVF+ovrXX4fKl5Gap6R5HpdTWtx6cr16iP/PLU8UXqI9GO/S/OwLFyymPsbv3bkqW4cv44NFM6v2zVm39r3X9jx9panRbdjf1DyjGGOzSe/H3X46RXYMSyR/Sx5pzqhbDMjOfxwYMlaHjmBtyfSVmSQfTB8I24ceFak6CNnTmlA+nTQVQt+xO262SCrfcpsLcbr3/ZNYjYsLoF2DjxTqzQKSlJeOABhdp35Yvo83aw8gYrdZgC8ndUvZ1sl8DvQpV5eAeTr7vfkfmqMcmk8Xfuk1/UGpBW3jcQryT83tvB93aK/OmeDngopqx2x6iD9Z45RwqF7e2MtW5Hyz1kHPqyT6/s/ffD578Zp2c+DnjLicu68rjKH48nv/+CnatwpnIBetdkZhAV7AyWh35+9vf84tyh0U/oGTc55VI4gTsK1qhIdn8mfRqlJytuVXaDcYJ/az+r44PXQLJgDEC/XNI5NppzmBS+3oF41S3Lv1BZ3hO4NluWZMifRwZk/5YX/GXsGPicf2cMIu78TSHjLoJypRfaUPea7gi6uoIx+qL451hQORjxkaNQdKgedZFSlKMea576K476dIhfvyx+cyumYWPGgzNO3Qo0GgnyQOVxwUXHcXpCmdYLbKSq+sjPVusK93noZ2YNUY2p/2PISFKdy4DByeUd6HS65cz5sc5KZxDxtdAz8v3Wws+PrlM5mbxGnnv9jL4H+M/H18a6je93ruc6raHO8no7/TZapu+Z675Xbpz83fMml2Nd9p0ziFjW7oNt8nCo2nRWvOmu/AWPb6p2Ozte2bRtleoQHatHpLRUvRTdpoe3eUG5N/u4EzVllDrCQV3nQfdanOvW+OqJ3afqCbCP6wf/pt3WEU229SGh7JUuuhQdAZlS9SO2HX2oPrC+d9oYR46DMsxYOQ7KtqeupB388cqT9xzhchYq35uu8Q1e6roevH4iE/lW5eNp80x6KvkOw3u8e/3esvHeq7/MvO172Hk5bSD2+nUX3Zd7rLe8OO+bqW2LUtvm2efTT4aU+QTuKSNdYX6TZSfej9s2+PqWVN8WDDuOONVZ1W6Y+lM291FceCxOdZProqsTfAYN17HpwFvrgZ/N0nXeQdW3Zvz0ibH48re2ztM1mO9Hw9o2+qTyP7YzQYcoqB+8hfrB7+TaDzbkUpZZhcxdEIng2opKLFz0kPocChkvJaSZDr97Kz79DW3WGGKjRr2wldPX43DRdIwhPcnGyviiRp3+Yh1aVSYpIKNKGUrmeJTPx4gSs6+oHP0+MfkU3ajT+fhykMHD56XNMcIewbA9/63SPqdsxty9FOerPfnh6PrfY8WyajSZ7xrTOFCDs2LZE1hT32bSc+PM8vkpHvYMFBQPQO8x5qtl3s0ojNUqxcKKcJhSlqMRUe5866peh29vnYVmtVWRIrk5wYXde0kF+mx7jyo/K1z6LSuL4qmUB302bsreS+5VHVmVz9N7UTDvISVwfN1Wgf0r9q3+kJRJ+NG4GOJ8n96+ECsWOhcrnIIJC9R5bagDV4QISAFN0+d2leULOt3cW2pjiMrnmV/R9ZMSPmISUkLl8BtuOM39spILZN97yXWmzDKk8hoUDIqiTyU/ywM48TvT2ayksh40GOfpo0I5tci975zh85P6+k7lMwP9rqIeR3SEURoDUBilTiLf6wYyjG6nZ97ZiKbW4/gX/es9+VKAy4nLj+WVGo4+F9GzpWc+kBWcen6r0FEyW4UoOHLcKyjHHvheLuCyNN+9xA5Tg8Rl/H84oRrusDKmOjEt2MHJllEoH7LN1H3gkiu1Za51hdUJEVxjw2hHRhB7jXTIyFJEt9L/wsEqhKhs7gRK18evqAamdiI0IrUO8VMw4VIyNrjsq3Ci+HKfrmjZ5q3HW/DdTJYL0n7cEVDPi8uOHujqx9Wzaw8qepXOx/HvcpWnJpxpJX0wOTHkqe9KNmbvNfmT/mcd1Ys7P1MB6lBxesu2dnN0MqiOs5FsrjP+/X+5YVHFZaQrOH+6N1yKHyk58+ffbDtLVo6VfiI5Hqfl2MJ1N3djiOXjPlzS+LKRj4MmlQ2KO0iOjNy89hUuma5D0jjdOZ4278jvnOKvsMakOx0WoohE9C2VDwly8X+ofMLbPMYr9xEtr5v+RN9fRl07d8LMNSnjpxHvP0WfPdetoE7Zz5xrod9FprhhO6p+mHRcjFJTfXIhWPZaF70SWu/7j6MupJKnA+g/3oTmJJPvJPRduQAFu1dp+aB80tF3pVeeXH2k5Nu2PVa+A/Lnr6NhBOQbUwPyzele+abjlbFozsttHicH9XRAvhMgY2PouL3mvKRbTHLvJbMD/YeHVdvD6U6Z0ea0c758/M+xYMJgdKh0V3cp3ec5n8toatv09bdsi+qydJ4rG2bmmozeDM2Hy8C5FvpdNF1ZarLRx+HU4nVVzxL7lpHSi027QXX0x2NRplIHorz4uK5X1WQYGZ0QSuNfsYqOqzqkB01UnVWDD7X48h8jcZmtj5PHougfe5Thk7RtI8J0SC4kK7NcyjKnOURsDN0ze47yFiXQcJAeMjDilndw7TKPkTFyCAaRQTD+D5T+h+kYQUmFwytwfpQ6WU07qPJlxvnDL6SOSjmu4nzml1Oeheg30uxsrcM/qIPgJXIFlXrTB673R1GB/kM4m0foWt7R3qNBQ9xrXbcQN07MxDtk5g5dUe/zDiVnFKKox0fJ3IjL78TVGVrFoax+T1U8Hat8ObctAbijF0X72/rGWPnriswjG/zZHd3QnUzT0TRpLtQ5nhAznUdjPLEyt50fJYRkyJQUov9tJh9fGI7Fm08yitCbO8Rk5OjrMbHZNU/hGzoXK3keCXIVIBtQ0PfoM0j4eno5954WUq7sLQg3KmzHmzYbozrvcvT/Shua4bBB0ZLmXrkS15IBqg28YfMG47S3YeXR6XfYW8KKmTr31+seozUIOxvD3P+2V00+foPiPFX23KEkWXGMBGoY3n5DfcL+4+hwDKWQslFQ+saQdB554zRuWFc/7YyU8XNXc8O4gSbZKoiSHFDnpMAa3VQOOnzQI8ff++X4zPJPkpYlG80q/TZoY9uirsdTxp0oz0So81ejR7yPNscRGWJGyHkEjmO+aXNH04j2r1DPdbjd6AwlzxW4bCQ1YrP08cFR9hV3Tsw6dDdjGq18s+Hhyl9+oM6VlY/gSGzGaEPsRNQ8c0fO9OBQ4UNGvp38SaYcgz8D5lIdH1SGoZwHbRyO6tBK+bzED2gLTsfMQJRvQMHFkWN1v0FPWmcpxoWRg9jsMV40xWQoDETRFCM3npHeozu+AkrvS5hzUFYyEk1bXW+LFyedO0kej0w4Hrmnc8Ujw7Lu/Ay/8mI619/Necho2noQkWGmc2XrB6V/HR/IYzYOna0P50UH4PSRcJ19gtogpa98+i8bJqFP9EDaNsHLqZ1kfFGb6p/nZOVby2XO8s1tmFe+vYYly7fKxyPffLyjE1wS9HQa+e59UdQtSwduxweE9h/ObNoLsF73tS/UZxk/OiQfTYczEMn9FbefEw63bbpN4HPl8myVIb17s7kW0ks1B/SgHhNWlmeDQ9uMR/ggYt9GcKF5vk5d3rTHGXTLlu0Nh1BUovVHWckoNDUYz26yto1IqkOoHzypM/3gTpCTQcRYb9HM2b8wKZY12M+emHep5JXhsk55apQhw+FzvM9sHOqWLdqAWu/kwdv+gBGUnjHoR5XU8WKpbVHGRpnLWtx/AyncXaX44PmZJi0FxcP87sa8Y0ZmTaewgyr2mf1mF+PxDqWEOoWR6PaEERuL6x1Kh2c0hTc7gqTgDhCPanmVE6UZZeyfRD2alOErOo+nt1MnVY8U5Qunc8ybUrLaQ+AYGtTAqM9r+bxe71lg5CcFqsw+95cZz/Gx53UbOE/+M9+j8orhtHpeZFCY0TttpFH6x9/rURB7/IZmFJpRtOQEy1inaqNCb86oGEMNZESNlpnRSOPFCSdQNkNt2aQoM8cz8Ap1OF9wrqdgwlQySu51ZKYjpsedrfGrt3Qem0BZfm/L0oweqX1foMAxAANl7Dm+6yjGTdNLEc/Ka8yhB2aEjjdPWFF3hUe++3ye+Uh5Kqwst8Su83SayFg2HmO1sRF8/Qj0MXszxvF46S1XL2x2cpwNo8BNZDgebwxvthNiRn5XNIxVHZfOLPSTEfFmt/PTDXA6snlHD/ZlhdGXbZitdLjb9tjBILOxfFd2D/lmozOcJP0HMxjavPPyQNvZRagIgh5C+/Hc6iYbUyPZ68QDdgfxpRqgyKVt+/fSqX7lp7U1WPvKn823ANWLTAic9uCcrNuNVjKQfjzF7DecjLUDQ0Yp78z55eNg9cPJo187XpvIf7InSBPfRYaWDYfLAJV/wvFr0EL9qxHXJQmT4zlEgRXj8kJjM+KFxqXPIQABi1nNIdr6Jhabr51BhY1F9+KfjiLye4fSYpUAjwKpBEsmXh2GRz/6h4av6HA39jhwjL5JU3g7zqxEecSVR6M9o2hjBqMgpYLagn/uRkjIDaU3fK/TA/iMCuUt8BqWtFEHTSl4n0HHcINmjM7VX+DExRVOh96PKTMV8uZy6kETwkOb9m754ZC9wtgXZEStQweJ/Yka40FhwxaJhgmPtKVX3sEyNskeuIFSBkjNZnRwiICRGQ756x+SvzMa5vPIecrGR7J0FzUq54y4a+OUR2nPHGlGwbhrclJaHJpS2MJlmQwu4+/dEUYu416pjD+DqrNb8caSzkQMtvFjI/QofmoOItY+yg1PCMBzJj578zHz7d/M/nhWo6unj3ym/vNIbz44cyRmPrEOGY2CuYEnVHMYpweZkBUOcZlgLQnvyO0MDLAj7uwJcEIFM4DrD3UR+gUGTPi6lBxnJTCPYd1nmTxbr3xU4G7Hg8jek0InTDMUDmOrPuh4LtWo78T8rvRWVlkKHLPhcIkenWQoj6oTVkMdrYmjyK4KesES6Wx9YI9MQUjIeH4wcqnkwyNnGcBtFkdHaGPNm4+HBPk2hodKN55+Hvy0IpGtfHObV5zY5jnybb6ng8PmbcghD4zo/oaug6H9BwsbhyZ6gFHeszwPlva9vYzaVBsEmrlHx18GbhuWG4/hDWpjulqvD58+AUVmsOLosXbjgdVGjXcg/+ixNtc761CLLw+R3pk7FkWHdLicJpu2zcBziPLUD07ERHV9+Lz57icn2fkmHleGUOjiCjxXSIXFmZC2pvXag9OwDA117TqUTu3XnqOTaz/AYRMCd1X0a6iyY6p30GcdYjeeFKebvgg7mwoxZr7NZ2VKr8vJtTP8x5swvvjK9c55VfqiOfoHeYInni5Wk9tGYSq7DFU4Qi1e5zhNDneZNRibg3HSncYd/VextJ4OPMfdZuQdYpSiMy7v8cd98dBqJDfDeTCnHvybG7LEmxmtZSVTwHNQbAhLymU2yThZfRz9bR7BEKcQzix/RYcOmhAcO4p2ZvmrnpBCTs+lC+v1sHB8tjUqyNDY2OyGLbA3yWTvlJnPYEiCMhZ1HpFef3NiYE8tqgKm2ZAfKgN+tpSf17s1dNw+tJjjdboOV1BhB57rCcMNkaTzosoYaFz2e1Fg7smbv5pDZJ4fy1qbOj5QNhutwZukzDz3qsLUPjbHk1HStvtSDDUhRRwvrkYqVy9BPOaGdKRdZt1bljx3jCfFMzZMT22ul5LlFTZEg8uYF8XQv0jO8nrqjgBDh8/M0SJqVGFxOgTuDvqaTic04v319YjY0Kd8j+ibMuNOkg6hzKyM3bl8nrBNYxDo56U9vq5cGvlRXlfTmTEhmzxZvUPnkPT4cLxyxs+wl9EVLMfb0ccJCbWjylRneb4Sy/dDg9HhmWPhXg/JxzbjsfqY5JK9p8450oWo2vPa401ZUkdOybENEUxXxoonqR2jCj90BDXpqfDKxwTEquudyIftL32EOIfGGbmxIXK8WIGTNgWosh5HMpCq4qWYY/alkzOeKJ3Y5jFuiOdUVPvmIm1vOOiG8anjeVI4fWZDbuQUla7mCtG1rGm82FyLniN1Nlaw4melPOYZPnO/vNLxRl7D073yQXK2wZX7ZHj1tKt3g3KWTr558MeENldS+24fB+vdrOTbkz8fb+umlW8nn9Ty7bTXdGz/WJXT3+A2L6z/oMvSpHn7A4HzpvMcOXNPbZi34002z4jS3LZQY0MWvdcTmg/LDbdh/N3bhuXEk6hXjUy6uk+YEDUOT4uoup5+CXxb/9R8QVP3nTBaqmvRRleHMO4++p1naXxVl0d6wuWybtvOBmuxpaGNVFLUfPeT1SpzHCZXWvaTtKvM5UxgNbluA48S57DstiAI3R0ecfo1orUTMWN5YNqa0K3wr0p47jHzuQ/wwLCPu1k7wwsJnVtLa/dU2JAIW5FU8DIJiSsB/vuZ+fyHeCBak/e6n7CEdk+APVAVMUy6YaFJcMnKQ8SeoS4zhrozyzeibui0hBezCoLwA2bJG1Tnf42ShmdxlxhDQpehQ2YeGLcHf5RBN0HoQZi6X9Igdb/TmHA5XtL7xvtNmh95MasgCIIgCIIgCD2WrDxEgiAIgiAIgiAIPyTEIBIEQRAEQRAEocciBpEgCIIgCIIgCD2WrplDxEv/mTdhx+tfdpfZTJaeLyb/EotL9mT8osIuXWHDc684VO1eU7L0fMDvT5oLvHzDQqw1SX54gt40FDVtzH21EllRTxAEQRAEQfgB0XUeovZ6rFn2RKLRE0xnI0a9W8BszrsLujn27d/Bdw0lS88SXoaRXwiptoxf2PUk7po4UYwZQRAEQRAEQTBk7SG69vrK9EtvsxdkOvDWU39Vb711CEv3eXX4nQX3Ibr1Cbx+WB+7L16K8pF84EFULfuTegMue3amqjTraYL6Xbl90biiDXWv8bsP+EVv/LI4Txo8XhoLG2pPNeOn/DI79TtO5N+OxZd0Xsx9FBcei6O8lN/ibfO2x9j83Wt0SOa1Cknnt2pPQwbeG/bSVMTwR+UJct+Dctc+7SFqaClHOV9QW50+hj1HD5bDvie46V06drn+rNa3L9d72uqexY0LjW/J+xuVz2ZMovOYQw1UDs/cgPvtuzoFQRAEQRAEoZuRlYeIX8x6bUUlFi56SH3ucgpLEW14AiuWPYGqQ6NwGb+xmgwJfts1p61YVo146R24qbgR7z9lvC4chqb2aYOlbO4UoFrnsaKaDJrpP8dw46WpOkTGgd2njLRafFQPXHKlebXv5LGI1FcbA2cgyouPK++Wkw+lls1lA8rmD0w9Cx6uxVcUoanWhsWtxf21TSi6wniJBpYjumsirp44ERvJMLp1CaWtW4gb2TNE2x/r2vRxDBk99/HLvtS+Z9FQ8gvzHqXH8MaDJWh4Rv/mamV40XluoM/vNlGhkdGmfiPGkCAIgiAIgtC9ySlkjo2he2bPUd6ivDByigmZuw+XNL7szulpr8dH5vP2l/Rcn7KSUWhqsF4VbcBER5ivCVTgspEH8aXNb1M16jBYGTLJOLrjK2AIe4H4XBHs2+GG/DVtNZ6tTXvQVMj5cP5kKM0y4X5T9O9yZcWdZGTkEs62LwbHzGmrwzvG+3Mg1oahw2fqLyHMnFyCgUX8QlkOvfN4f5aUoqipRowdQRAEQRAE4QdPznOIrLdo5uxfmJRO4Hh1QuYcnW0a/459kbEoY2MH20xYXAjtx03YH4fJGQ8Rb/lcJCFTLok64XDZwmFy2tsjHh9BEARBEASh59GpRRU+ra3B2lf+bL6dHY4ea0NRiQ1Lq8BPS4HYYfP18HHEI8M8HqCDiLWbUDtm8hSUwxoyOq/IMBMe59CI+sYILps7FnA8UX6GT5+Aongz5RPIv5PwHKJMFkhYsasJRRXPQ/t+ZuK5iiI07Qp6lmZiUgndwqbw9eaYtUdbMLDkGpOPh+X1aCqqNOFzAdgbNXRE4m8EQRAEQRAEoRuSk0H0TTyuDKG0iyt0AUfX/x5VsCF2PD/ILm5AsHcHpZij9j1q5hZVA1NsSBtQ5VnQQYXHld6n9z2s5wTZ9MhIuKF2hiKTz5zir7BGeYIo//X1iNj8aVswPWhgdQHL71Tzgx4woW4lDc86iyTwHCI3/c+pPT6+fHh7E4vVjidx17stKH/QpH9ojS9i3WY0kFmpf/NhuNEkCIIgCIIgCN2ErFaZ4zC50rKf5HeVuXORyb/EgmHVvvC9nN9ZlMUqc2cD9kKV7nJXmRMEQRAEQRCEnkxWHiL2DGXsFSrUnpoEj0my9HMBNtjY0zPxON7q7Fwmm1dwoYVk6V2I951FvKy3GEOCIAiCIAiCoMn6PUSCIAiCIAiCIAg/FDq1qIIgCIIgCIIgCEJ3RgwiQRAEQRAEQRB6LGIQCYIgCIIgCILQYxGDSBAEQRAEQRCEHgrw/19PeaJ3tqqgAAAAAElFTkSuQmCC;" vertex="1" parent="1">
                    <mxGeometry x="530" y="450" width="416" height="205.51" as="geometry"/>
                </mxCell>
                <mxCell id="21" value="Custom Node" style="shape=ext;double=1;rounded=1;whiteSpace=wrap;html=1;" vertex="1" parent="1">
                    <mxGeometry x="270" y="810" width="120" height="80" as="geometry"/>
                </mxCell>
                <mxCell id="23" value="&lt;br&gt;&lt;br&gt;Gets the id from the sequence controller and renders its corresponding information.&amp;nbsp;" style="text;html=1;strokeColor=none;fillColor=none;spacing=5;spacingTop=-20;whiteSpace=wrap;overflow=hidden;rounded=0;" vertex="1" parent="1">
                    <mxGeometry x="235" y="900" width="190" height="120" as="geometry"/>
                </mxCell>
            </root>
        </mxGraphModel>
    </diagram>
</mxfile>